<svg width="25" height="24" viewBox="0 0 25 24" fill="none" xmlns="http://www.w3.org/2000/svg">
<path d="M10.3031 10.2245L12.0782 6.95654L13.8534 10.2245L17.1213 11.9996L13.8534 13.7748L12.0782 17.0427L10.3031 13.7748L7.03516 11.9996L10.3031 10.2245Z" stroke="#26A66B" style="stroke:#26A66B;stroke:color(display-p3 0.1490 0.6510 0.4196);stroke-opacity:1;" stroke-width="1.5" stroke-linecap="round" stroke-linejoin="round"/>
<path d="M21.8395 11.9998C21.8395 14.0123 21.2175 15.9755 20.0587 17.6208C18.8998 19.2661 17.2608 20.5131 15.366 21.1909C13.4711 21.8688 11.4131 21.9444 9.4736 21.4075C7.5341 20.8706 5.80795 19.7474 4.53145 18.1916C3.25496 16.6358 2.4905 14.7235 2.34275 12.7165C2.195 10.7095 2.67117 8.70587 3.70607 6.97993C4.74097 5.25398 6.28402 3.89007 8.12398 3.07492C9.96394 2.25977 12.0109 2.03322 13.9845 2.42629" stroke="#26A66B" style="stroke:#26A66B;stroke:color(display-p3 0.1490 0.6510 0.4196);stroke-opacity:1;" stroke-width="1.5" stroke-linecap="round" stroke-linejoin="round"/>
<path d="M17.0371 7.89856L21.8909 3.08105" stroke="#26A66B" style="stroke:#26A66B;stroke:color(display-p3 0.1490 0.6510 0.4196);stroke-opacity:1;" stroke-width="1.5" stroke-linecap="round" stroke-linejoin="round"/>
<path d="M18.125 3.00879H22.0376V6.95691" stroke="#26A66B" style="stroke:#26A66B;stroke:color(display-p3 0.1490 0.6510 0.4196);stroke-opacity:1;" stroke-width="1.5" stroke-linecap="round" stroke-linejoin="round"/>
</svg>
