<svg width="32" height="32" viewBox="0 0 32 32" fill="none" xmlns="http://www.w3.org/2000/svg">
<path d="M15.9779 0C24.8151 0 32 7.1849 32 16.0221C32 24.8594 24.8151 32 15.9779 32C7.14062 32 0 24.8594 0 16.0221C0 7.1849 7.14062 0 15.9779 0ZM15.7993 5.89102C15.3523 6.42656 15.1296 7.05208 15.1296 7.72044C15.1296 8.25599 15.3081 8.703 15.5766 9.01433C15.8893 9.32709 16.3349 9.5056 16.7819 9.5056C17.4074 9.5056 17.9872 9.23711 18.4328 8.70157C18.8341 8.21029 19.0583 7.49623 19.0583 6.73789C19.0583 6.29089 18.9241 5.88959 18.6113 5.57683C18.2986 5.26407 17.853 5.08555 17.406 5.08555C16.8262 5.08555 16.2449 5.35404 15.7993 5.88959V5.89102ZM11.7378 15.1296L12.2733 15.7094C12.6746 15.2624 13.0773 14.9053 13.3444 14.6826C13.6129 14.504 13.8357 14.4141 14.0142 14.4141C14.1484 14.4141 14.2827 14.4583 14.3712 14.5483C14.4155 14.6826 14.4612 14.8168 14.4612 15.0396C14.4612 16.155 14.327 16.869 13.7471 19.5467C13.1673 22.2245 12.8546 24.1882 12.8546 25.482C12.8546 25.9733 12.9445 26.3303 13.123 26.5531C13.2573 26.7759 13.5243 26.9544 13.8814 26.9544C14.4612 26.9544 15.3095 26.5074 16.2921 25.7491C17.2746 24.9451 18.2557 23.8297 19.3268 22.4016L18.747 21.9103C18.39 22.3573 18.0329 22.6686 17.7644 22.8928C17.496 23.0714 17.2732 23.2499 17.0947 23.2499C16.9604 23.2499 16.8262 23.1156 16.7376 23.0271C16.6934 22.8928 16.6477 22.7143 16.6477 22.4473C16.6477 22.2688 16.6919 21.6889 16.8704 20.6621C17.0047 19.6353 16.9604 19.6353 17.2275 18.1186C17.2717 17.6716 17.406 17.0475 17.5402 16.2892C17.8973 14.0128 18.1201 12.6289 18.1201 12.1833C18.1201 11.782 17.9858 11.425 17.8516 11.2008C17.673 10.978 17.4046 10.888 17.0932 10.888C16.5577 10.888 15.8436 11.2893 14.8611 12.0034C13.8785 12.7617 12.8974 13.7885 11.7363 15.1281L11.7378 15.1296Z" fill="#26A66B" style="fill:#26A66B;fill:color(display-p3 0.1490 0.6510 0.4196);fill-opacity:1;"/>
</svg>
