<svg width="16" height="20" viewBox="0 0 16 20" fill="none" xmlns="http://www.w3.org/2000/svg">
<path d="M7.99997 10.7499C7.08716 10.7499 6.31729 10.4365 5.69037 9.80955C5.06346 9.18264 4.75 8.41277 4.75 7.49995C4.75 6.58714 5.06346 5.81727 5.69037 5.19035C6.31729 4.56344 7.08716 4.24998 7.99997 4.24998C8.91279 4.24998 9.68266 4.56344 10.3096 5.19035C10.9365 5.81727 11.25 6.58714 11.25 7.49995C11.25 8.41277 10.9365 9.18264 10.3096 9.80955C9.68266 10.4365 8.91279 10.7499 7.99997 10.7499ZM7.99997 9.24998C8.49741 9.24998 8.91344 9.08267 9.24808 8.74805C9.58269 8.41342 9.75 7.99739 9.75 7.49995C9.75 7.00252 9.58269 6.58649 9.24808 6.25185C8.91344 5.91724 8.49741 5.74993 7.99997 5.74993C7.50254 5.74993 7.08651 5.91724 6.75187 6.25185C6.41726 6.58649 6.24995 7.00252 6.24995 7.49995C6.24995 7.99739 6.41726 8.41342 6.75187 8.74805C7.08651 9.08267 7.50254 9.24998 7.99997 9.24998ZM7.99997 19.4807C5.83716 18.8909 4.04646 17.6179 2.62787 15.6615C1.20929 13.7051 0.5 11.5179 0.5 9.09995V3.34613L7.99997 0.538452L15.5 3.34613V9.09995C15.5 11.5179 14.7907 13.7051 13.3721 15.6615C11.9535 17.6179 10.1628 18.8909 7.99997 19.4807ZM7.99997 2.13458L1.99997 4.37495V9.09995C1.99997 10.0512 2.13619 10.9711 2.40863 11.8596C2.68108 12.748 3.05961 13.5769 3.54422 14.3461C4.21857 14.0025 4.92466 13.7339 5.66248 13.5404C6.40029 13.3468 7.17946 13.25 7.99997 13.25C8.82049 13.25 9.59966 13.3468 10.3375 13.5404C11.0753 13.7339 11.7814 14.0025 12.4557 14.3461C12.9403 13.5769 13.3189 12.748 13.5913 11.8596C13.8638 10.9711 14 10.0512 14 9.09995V4.37495L7.99997 2.13458ZM7.99997 14.7499C7.35509 14.7499 6.7349 14.8198 6.1394 14.9596C5.54388 15.0993 4.98137 15.2955 4.45187 15.548C4.94804 16.0993 5.49388 16.5759 6.0894 16.9778C6.6849 17.3798 7.32176 17.6871 7.99997 17.9C8.67819 17.6871 9.31345 17.3798 9.90575 16.9778C10.4981 16.5759 11.0423 16.0993 11.5385 15.548C11.009 15.2955 10.4481 15.0993 9.85575 14.9596C9.26345 14.8198 8.64486 14.7499 7.99997 14.7499Z" fill="#1C1B1F" style="fill:#1C1B1F;fill:color(display-p3 0.1098 0.1059 0.1216);fill-opacity:1;"/>
</svg>
