<svg width="74" height="21" viewBox="0 0 74 21" fill="none" xmlns="http://www.w3.org/2000/svg">
<path d="M1.86273 7.34638L13.2443 0.597475C15.6477 -0.827389 18.6909 0.921695 18.6909 3.76716V17.3332C18.6909 20.1787 15.6477 21.9278 13.2232 20.4816L1.84168 13.6687C-0.523864 12.2438 -0.523864 8.74992 1.86273 7.34638Z" fill="#E0A225"/>
<path d="M60.6397 15.247C59.8941 15.247 59.2231 15.115 58.6266 14.8512C58.0416 14.5759 57.577 14.2088 57.2328 13.75C56.8887 13.2797 56.7052 12.7577 56.6822 12.1842H58.7126C58.747 12.5857 58.9363 12.9241 59.2804 13.1994C59.636 13.4632 60.0777 13.5951 60.6053 13.5951C61.1559 13.5951 61.5804 13.4919 61.8786 13.2854C62.1883 13.0675 62.3432 12.7922 62.3432 12.4595C62.3432 12.1039 62.1711 11.8401 61.827 11.668C61.4943 11.4959 60.9609 11.3067 60.2268 11.1002C59.5156 10.9052 58.9363 10.7159 58.4889 10.5324C58.0416 10.3488 57.6515 10.0678 57.3189 9.68924C56.9977 9.3107 56.8371 8.8117 56.8371 8.19227C56.8371 7.68754 56.9862 7.2287 57.2845 6.81574C57.5827 6.39131 58.0071 6.05865 58.5578 5.81776C59.1198 5.57687 59.7622 5.45642 60.4849 5.45642C61.5632 5.45642 62.4292 5.73173 63.0831 6.28234C63.7484 6.82148 64.104 7.56136 64.1499 8.50199H62.1883C62.1539 8.07756 61.9819 7.73916 61.6721 7.4868C61.3624 7.23443 60.9437 7.10825 60.4161 7.10825C59.8999 7.10825 59.5041 7.20576 59.2288 7.40076C58.9535 7.59577 58.8159 7.85387 58.8159 8.17506C58.8159 8.42742 58.9076 8.63964 59.0912 8.81171C59.2747 8.98377 59.4984 9.12142 59.7622 9.22466C60.026 9.31643 60.4161 9.43688 60.9323 9.586C61.6205 9.76954 62.1826 9.95881 62.6185 10.1538C63.0659 10.3374 63.4502 10.6127 63.7713 10.9797C64.0925 11.3468 64.2589 11.8343 64.2703 12.4423C64.2703 12.9814 64.1212 13.4632 63.823 13.8876C63.5247 14.3121 63.1003 14.6447 62.5497 14.8856C62.0105 15.1265 61.3739 15.247 60.6397 15.247Z" fill="#211F23"/>
<path d="M53.085 7.21154V12.4595C53.085 12.8152 53.1653 13.0732 53.3259 13.2338C53.4979 13.383 53.7847 13.4575 54.1862 13.4575H55.3906V15.0922H53.8421C52.9588 15.0922 52.282 14.8857 51.8117 14.4727C51.3414 14.0598 51.1062 13.3887 51.1062 12.4595V7.21154H49.9878V5.61133H51.1062V3.25403H53.085V5.61133H55.3906V7.21154H53.085Z" fill="#211F23"/>
<path d="M48.866 10.1194C48.866 10.475 48.8431 10.7962 48.7972 11.083H41.5532C41.6106 11.8401 41.8916 12.448 42.3964 12.9069C42.9011 13.3657 43.5205 13.5951 44.2547 13.5951C45.31 13.5951 46.0556 13.1535 46.4915 12.2702H48.6079C48.3212 13.142 47.7992 13.859 47.0421 14.421C46.2965 14.9717 45.3674 15.247 44.2547 15.247C43.3485 15.247 42.534 15.0462 41.8113 14.6447C41.1001 14.2318 40.5381 13.6582 40.1251 12.9241C39.7236 12.1785 39.5229 11.3181 39.5229 10.3431C39.5229 9.36805 39.7179 8.51346 40.1079 7.77931C40.5094 7.03369 41.0657 6.46014 41.7769 6.05865C42.4996 5.65716 43.3255 5.45642 44.2547 5.45642C45.1494 5.45642 45.9467 5.65143 46.6464 6.04144C47.3461 6.43146 47.891 6.98207 48.281 7.69328C48.671 8.39301 48.866 9.20172 48.866 10.1194ZM46.8185 9.49997C46.807 8.77729 46.5489 8.198 46.0442 7.7621C45.5394 7.3262 44.9143 7.10825 44.1686 7.10825C43.4919 7.10825 42.9126 7.3262 42.4308 7.7621C41.949 8.18653 41.6622 8.76582 41.5705 9.49997H46.8185Z" fill="#211F23"/>
<path d="M34.4267 15.247C33.6811 15.247 33.01 15.115 32.4136 14.8512C31.8285 14.5759 31.3639 14.2088 31.0198 13.75C30.6757 13.2797 30.4921 12.7577 30.4692 12.1842H32.4996C32.534 12.5857 32.7233 12.9241 33.0674 13.1994C33.423 13.4632 33.8646 13.5951 34.3923 13.5951C34.9429 13.5951 35.3673 13.4919 35.6656 13.2854C35.9753 13.0675 36.1302 12.7922 36.1302 12.4595C36.1302 12.1039 35.9581 11.8401 35.614 11.668C35.2813 11.4959 34.7479 11.3067 34.0138 11.1002C33.3026 10.9052 32.7233 10.7159 32.2759 10.5324C31.8285 10.3488 31.4385 10.0678 31.1059 9.68924C30.7847 9.3107 30.6241 8.8117 30.6241 8.19227C30.6241 7.68754 30.7732 7.2287 31.0714 6.81574C31.3697 6.39131 31.7941 6.05865 32.3447 5.81776C32.9068 5.57687 33.5492 5.45642 34.2719 5.45642C35.3501 5.45642 36.2162 5.73173 36.8701 6.28234C37.5354 6.82148 37.891 7.56136 37.9369 8.50199H35.9753C35.9409 8.07756 35.7688 7.73916 35.4591 7.4868C35.1494 7.23443 34.7307 7.10825 34.203 7.10825C33.6868 7.10825 33.2911 7.20576 33.0158 7.40076C32.7405 7.59577 32.6028 7.85387 32.6028 8.17506C32.6028 8.42742 32.6946 8.63964 32.8781 8.81171C33.0617 8.98377 33.2854 9.12142 33.5492 9.22466C33.813 9.31643 34.203 9.43688 34.7192 9.586C35.4075 9.76954 35.9696 9.95881 36.4055 10.1538C36.8528 10.3374 37.2371 10.6127 37.5583 10.9797C37.8795 11.3468 38.0458 11.8343 38.0573 12.4423C38.0573 12.9814 37.9082 13.4632 37.6099 13.8876C37.3117 14.3121 36.8873 14.6447 36.3367 14.8856C35.7975 15.1265 35.1609 15.247 34.4267 15.247Z" fill="#211F23"/>
<path d="M25.2352 15.247C24.4896 15.247 23.8185 15.115 23.222 14.8512C22.637 14.5759 22.1724 14.2088 21.8283 13.75C21.4841 13.2797 21.3006 12.7577 21.2777 12.1842H23.308C23.3425 12.5857 23.5317 12.9241 23.8759 13.1994C24.2315 13.4632 24.6731 13.5951 25.2008 13.5951C25.7514 13.5951 26.1758 13.4919 26.4741 13.2854C26.7838 13.0675 26.9386 12.7922 26.9386 12.4595C26.9386 12.1039 26.7666 11.8401 26.4224 11.668C26.0898 11.4959 25.5564 11.3067 24.8222 11.1002C24.111 10.9052 23.5317 10.7159 23.0844 10.5324C22.637 10.3488 22.247 10.0678 21.9143 9.68924C21.5931 9.3107 21.4325 8.8117 21.4325 8.19227C21.4325 7.68754 21.5816 7.2287 21.8799 6.81574C22.1781 6.39131 22.6026 6.05865 23.1532 5.81776C23.7153 5.57687 24.3576 5.45642 25.0803 5.45642C26.1586 5.45642 27.0247 5.73173 27.6785 6.28234C28.3438 6.82148 28.6994 7.56136 28.7453 8.50199H26.7838C26.7494 8.07756 26.5773 7.73916 26.2676 7.4868C25.9579 7.23443 25.5392 7.10825 25.0115 7.10825C24.4953 7.10825 24.0995 7.20576 23.8242 7.40076C23.5489 7.59577 23.4113 7.85387 23.4113 8.17506C23.4113 8.42742 23.503 8.63964 23.6866 8.81171C23.8701 8.98377 24.0938 9.12142 24.3576 9.22466C24.6215 9.31643 25.0115 9.43688 25.5277 9.586C26.216 9.76954 26.778 9.95881 27.2139 10.1538C27.6613 10.3374 28.0456 10.6127 28.3668 10.9797C28.688 11.3468 28.8543 11.8343 28.8658 12.4423C28.8658 12.9814 28.7166 13.4632 28.4184 13.8876C28.1201 14.3121 27.6957 14.6447 27.1451 14.8856C26.606 15.1265 25.9693 15.247 25.2352 15.247Z" fill="#211F23"/>
<path fill-rule="evenodd" clip-rule="evenodd" d="M6.63344 7.26135C6.262 7.96054 6.07628 8.76351 6.07628 9.67027C6.07628 10.577 6.262 11.3909 6.63344 12.112C7.01581 12.8221 7.52928 13.3792 8.17384 13.7835C8.81841 14.1768 9.52852 14.3734 10.3042 14.3734C10.9497 14.3734 11.53 14.2524 12.0451 14.0103V12.407C11.6381 12.6364 11.1998 12.7511 10.7303 12.7511C10.2605 12.7511 9.81257 12.6309 9.3865 12.3905C8.97135 12.1393 8.63269 11.7788 8.37049 11.309C8.11922 10.8392 7.99358 10.293 7.99358 9.67027C7.99358 9.04755 8.11922 8.51224 8.37049 8.06432C8.63269 7.60548 8.97135 7.26135 9.3865 7.03193C9.80164 6.79158 10.2496 6.67141 10.7303 6.67141C11.2109 6.67141 11.6589 6.79158 12.074 7.03193C12.4891 7.27227 12.8224 7.62187 13.0736 8.08071C13.3263 8.52296 13.4573 9.04134 13.4664 9.63583H13.4719V14.2234H13.4669V14.2259H15.3514V5.19656H13.4669V6.50754C13.1501 6.09239 12.724 5.74826 12.1887 5.47514C11.6643 5.1911 11.0471 5.04907 10.337 5.04907C9.55037 5.04907 8.82933 5.24572 8.17384 5.63901C7.52928 6.02138 7.01581 6.56216 6.63344 7.26135Z" fill="white"/>
</svg>
