<svg width="66" height="21" viewBox="0 0 66 21" fill="none" xmlns="http://www.w3.org/2000/svg">
<path d="M2.61277 7.34663L13.9943 0.597719C16.3978 -0.827145 19.441 0.921939 19.441 3.7674V17.3335C19.441 20.1789 16.3978 21.928 13.9733 20.4818L2.59173 13.6689C0.226182 12.2441 0.226182 8.75016 2.61277 7.34663Z" fill="#E0A225"/>
<path d="M61.3898 15.247C60.6441 15.247 59.9731 15.115 59.3766 14.8512C58.7916 14.5759 58.327 14.2088 57.9829 13.75C57.6387 13.2797 57.4552 12.7577 57.4323 12.1842H59.4626C59.497 12.5857 59.6863 12.9241 60.0304 13.1994C60.386 13.4632 60.8277 13.5951 61.3554 13.5951C61.906 13.5951 62.3304 13.4919 62.6286 13.2854C62.9384 13.0675 63.0932 12.7922 63.0932 12.4595C63.0932 12.1039 62.9211 11.8401 62.577 11.668C62.2444 11.4959 61.711 11.3067 60.9768 11.1002C60.2656 10.9052 59.6863 10.7159 59.2389 10.5324C58.7916 10.3488 58.4016 10.0678 58.0689 9.68924C57.7477 9.3107 57.5871 8.8117 57.5871 8.19227C57.5871 7.68754 57.7362 7.2287 58.0345 6.81574C58.3327 6.39131 58.7572 6.05865 59.3078 5.81776C59.8698 5.57687 60.5122 5.45642 61.2349 5.45642C62.3132 5.45642 63.1792 5.73173 63.8331 6.28234C64.4984 6.82148 64.854 7.56136 64.8999 8.50199H62.9384C62.9039 8.07756 62.7319 7.73916 62.4222 7.4868C62.1124 7.23443 61.6937 7.10825 61.1661 7.10825C60.6499 7.10825 60.2541 7.20576 59.9788 7.40076C59.7035 7.59577 59.5659 7.85387 59.5659 8.17506C59.5659 8.42742 59.6576 8.63964 59.8412 8.81171C60.0247 8.98377 60.2484 9.12142 60.5122 9.22466C60.7761 9.31643 61.1661 9.43688 61.6823 9.586C62.3705 9.76954 62.9326 9.95881 63.3685 10.1538C63.8159 10.3374 64.2002 10.6127 64.5214 10.9797C64.8426 11.3468 65.0089 11.8343 65.0204 12.4423C65.0204 12.9814 64.8712 13.4632 64.573 13.8876C64.2747 14.3121 63.8503 14.6447 63.2997 14.8856C62.7606 15.1265 62.1239 15.247 61.3898 15.247Z" fill="#211F23"/>
<path d="M53.835 7.21154V12.4595C53.835 12.8152 53.9153 13.0732 54.0759 13.2338C54.2479 13.383 54.5347 13.4575 54.9362 13.4575H56.1407V15.0922H54.5921C53.7088 15.0922 53.032 14.8857 52.5617 14.4727C52.0914 14.0598 51.8562 13.3887 51.8562 12.4595V7.21154H50.7378V5.61133H51.8562V3.25403H53.835V5.61133H56.1407V7.21154H53.835Z" fill="#211F23"/>
<path d="M49.616 10.1194C49.616 10.475 49.5931 10.7962 49.5472 11.083H42.3032C42.3606 11.8401 42.6416 12.448 43.1463 12.9069C43.6511 13.3657 44.2705 13.5951 45.0046 13.5951C46.06 13.5951 46.8056 13.1535 47.2415 12.2702H49.3579C49.0711 13.142 48.5492 13.859 47.7921 14.4211C47.0465 14.9717 46.1173 15.247 45.0046 15.247C44.0984 15.247 43.284 15.0462 42.5613 14.6447C41.8501 14.2318 41.288 13.6582 40.8751 12.9241C40.4736 12.1785 40.2728 11.3181 40.2728 10.3431C40.2728 9.36805 40.4678 8.51346 40.8578 7.77931C41.2593 7.03369 41.8157 6.46014 42.5269 6.05865C43.2496 5.65716 44.0755 5.45642 45.0046 5.45642C45.8994 5.45642 46.6966 5.65143 47.3964 6.04144C48.0961 6.43146 48.641 6.98207 49.031 7.69328C49.421 8.39301 49.616 9.20172 49.616 10.1194ZM47.5684 9.49997C47.5569 8.77729 47.2988 8.198 46.7941 7.7621C46.2894 7.3262 45.6642 7.10825 44.9186 7.10825C44.2418 7.10825 43.6625 7.3262 43.1807 7.7621C42.699 8.18653 42.4122 8.76582 42.3204 9.49997H47.5684Z" fill="#211F23"/>
<path d="M35.1768 15.247C34.4311 15.247 33.7601 15.115 33.1636 14.8512C32.5786 14.5759 32.114 14.2088 31.7698 13.75C31.4257 13.2797 31.2422 12.7577 31.2192 12.1842H33.2496C33.284 12.5857 33.4733 12.9241 33.8174 13.1994C34.173 13.4632 34.6147 13.5951 35.1423 13.5951C35.6929 13.5951 36.1174 13.4919 36.4156 13.2854C36.7253 13.0675 36.8802 12.7922 36.8802 12.4595C36.8802 12.1039 36.7081 11.8401 36.364 11.668C36.0313 11.4959 35.4979 11.3067 34.7638 11.1002C34.0526 10.9052 33.4733 10.7159 33.0259 10.5324C32.5786 10.3488 32.1885 10.0678 31.8559 9.68924C31.5347 9.3107 31.3741 8.8117 31.3741 8.19227C31.3741 7.68754 31.5232 7.2287 31.8215 6.81574C32.1197 6.39131 32.5441 6.05865 33.0948 5.81776C33.6568 5.57687 34.2992 5.45642 35.0219 5.45642C36.1002 5.45642 36.9662 5.73173 37.6201 6.28234C38.2854 6.82148 38.641 7.56136 38.6869 8.50199H36.7253C36.6909 8.07756 36.5189 7.73916 36.2091 7.4868C35.8994 7.23443 35.4807 7.10825 34.9531 7.10825C34.4369 7.10825 34.0411 7.20576 33.7658 7.40076C33.4905 7.59577 33.3529 7.85387 33.3529 8.17506C33.3529 8.42742 33.4446 8.63964 33.6282 8.81171C33.8117 8.98377 34.0354 9.12142 34.2992 9.22466C34.563 9.31643 34.9531 9.43688 35.4693 9.586C36.1575 9.76954 36.7196 9.95881 37.1555 10.1538C37.6029 10.3374 37.9872 10.6127 38.3083 10.9797C38.6295 11.3468 38.7959 11.8343 38.8073 12.4423C38.8073 12.9814 38.6582 13.4632 38.36 13.8876C38.0617 14.3121 37.6373 14.6447 37.0867 14.8856C36.5475 15.1265 35.9109 15.247 35.1768 15.247Z" fill="#211F23"/>
<path d="M25.9851 15.247C25.2395 15.247 24.5684 15.115 23.9719 14.8512C23.3869 14.5759 22.9223 14.2088 22.5782 13.75C22.2341 13.2797 22.0505 12.7577 22.0276 12.1842H24.058C24.0924 12.5857 24.2816 12.9241 24.6258 13.1994C24.9814 13.4632 25.423 13.5951 25.9507 13.5951C26.5013 13.5951 26.9257 13.4919 27.224 13.2854C27.5337 13.0675 27.6886 12.7922 27.6886 12.4595C27.6886 12.1039 27.5165 11.8401 27.1724 11.668C26.8397 11.4959 26.3063 11.3067 25.5721 11.1002C24.8609 10.9052 24.2817 10.7159 23.8343 10.5324C23.3869 10.3488 22.9969 10.0678 22.6642 9.68924C22.343 9.3107 22.1824 8.8117 22.1824 8.19227C22.1824 7.68754 22.3316 7.2287 22.6298 6.81574C22.9281 6.39131 23.3525 6.05865 23.9031 5.81776C24.4652 5.57687 25.1076 5.45642 25.8302 5.45642C26.9085 5.45642 27.7746 5.73173 28.4284 6.28234C29.0938 6.82148 29.4494 7.56136 29.4952 8.50199H27.5337C27.4993 8.07756 27.3272 7.73916 27.0175 7.4868C26.7078 7.23443 26.2891 7.10825 25.7614 7.10825C25.2452 7.10825 24.8495 7.20576 24.5742 7.40076C24.2989 7.59577 24.1612 7.85387 24.1612 8.17506C24.1612 8.42742 24.253 8.63964 24.4365 8.81171C24.62 8.98377 24.8437 9.12142 25.1076 9.22466C25.3714 9.31643 25.7614 9.43688 26.2776 9.586C26.9659 9.76954 27.528 9.95881 27.9639 10.1538C28.4112 10.3374 28.7955 10.6127 29.1167 10.9797C29.4379 11.3468 29.6042 11.8343 29.6157 12.4423C29.6157 12.9814 29.4666 13.4632 29.1683 13.8876C28.8701 14.3121 28.4456 14.6447 27.895 14.8856C27.3559 15.1265 26.7192 15.247 25.9851 15.247Z" fill="#211F23"/>
<path fill-rule="evenodd" clip-rule="evenodd" d="M7.38346 7.26147C7.01202 7.96066 6.82629 8.76363 6.82629 9.67039C6.82629 10.5772 7.01202 11.391 7.38346 12.1121C7.76583 12.8222 8.27929 13.3794 8.92386 13.7836C9.56842 14.1769 10.2785 14.3735 11.0542 14.3735C11.6997 14.3735 12.28 14.2525 12.7951 14.0104V12.4072C12.3881 12.6365 11.9498 12.7512 11.4803 12.7512C11.0105 12.7512 10.5626 12.631 10.1365 12.3907C9.72137 12.1394 9.3827 11.7789 9.12051 11.3091C8.86923 10.8393 8.7436 10.2931 8.7436 9.67039C8.7436 9.04768 8.86923 8.51236 9.12051 8.06444C9.3827 7.6056 9.72137 7.26147 10.1365 7.03205C10.5517 6.7917 10.9996 6.67153 11.4803 6.67153C11.961 6.67153 12.4089 6.7917 12.824 7.03205C13.2392 7.27239 13.5724 7.62199 13.8236 8.08083C14.0764 8.52309 14.2073 9.04146 14.2164 9.63595H14.222V14.2235H14.2169V14.226H16.1015V5.19668H14.2169V6.50766C13.9001 6.09251 13.474 5.74838 12.9387 5.47526C12.4143 5.19122 11.7971 5.04919 11.087 5.04919C10.3004 5.04919 9.57935 5.24584 8.92386 5.63913C8.27929 6.0215 7.76583 6.56228 7.38346 7.26147Z" fill="white"/>
</svg>
