<svg width="74" height="21" viewBox="0 0 74 21" fill="none" xmlns="http://www.w3.org/2000/svg">
<path d="M1.8629 7.347L13.2444 0.598085C15.6479 -0.826779 18.6911 0.922306 18.6911 3.76777V17.3338C18.6911 20.1793 15.6479 21.9284 13.2234 20.4822L1.84185 13.6693C-0.523696 12.2444 -0.523696 8.75053 1.8629 7.347Z" fill="#E0A225" style="fill:#E0A225;fill:color(display-p3 0.8784 0.6353 0.1451);fill-opacity:1;"/>
<path d="M60.6401 15.2476C59.8945 15.2476 59.2235 15.1157 58.627 14.8518C58.0419 14.5765 57.5774 14.2094 57.2332 13.7506C56.8891 13.2803 56.7056 12.7584 56.6826 12.1848H58.713C58.7474 12.5863 58.9367 12.9247 59.2808 13.2C59.6364 13.4638 60.078 13.5957 60.6057 13.5957C61.1563 13.5957 61.5808 13.4925 61.879 13.286C62.1887 13.0681 62.3436 12.7928 62.3436 12.4601C62.3436 12.1045 62.1715 11.8407 61.8274 11.6686C61.4947 11.4965 60.9613 11.3073 60.2272 11.1008C59.516 10.9058 58.9367 10.7165 58.4893 10.533C58.0419 10.3494 57.6519 10.0684 57.3193 9.68985C56.9981 9.31131 56.8375 8.81231 56.8375 8.19288C56.8375 7.68815 56.9866 7.22931 57.2848 6.81635C57.5831 6.39192 58.0075 6.05926 58.5581 5.81837C59.1202 5.57748 59.7626 5.45703 60.4853 5.45703C61.5636 5.45703 62.4296 5.73234 63.0835 6.28295C63.7488 6.82209 64.1044 7.56197 64.1503 8.5026H62.1887C62.1543 8.07817 61.9822 7.73977 61.6725 7.48741C61.3628 7.23505 60.9441 7.10886 60.4164 7.10886C59.9002 7.10886 59.5045 7.20637 59.2292 7.40137C58.9539 7.59638 58.8162 7.85448 58.8162 8.17567C58.8162 8.42803 58.908 8.64025 59.0915 8.81232C59.2751 8.98438 59.4988 9.12203 59.7626 9.22527C60.0264 9.31704 60.4164 9.43749 60.9326 9.58661C61.6209 9.77015 62.183 9.95942 62.6189 10.1544C63.0663 10.338 63.4505 10.6133 63.7717 10.9803C64.0929 11.3474 64.2592 11.8349 64.2707 12.4429C64.2707 12.982 64.1216 13.4638 63.8233 13.8883C63.5251 14.3127 63.1007 14.6453 62.5501 14.8862C62.0109 15.1271 61.3743 15.2476 60.6401 15.2476Z" fill="#211F23" style="fill:#211F23;fill:color(display-p3 0.1294 0.1216 0.1373);fill-opacity:1;"/>
<path d="M53.0845 7.21142V12.4594C53.0845 12.815 53.1648 13.0731 53.3254 13.2337C53.4974 13.3828 53.7842 13.4574 54.1857 13.4574H55.3902V15.092H53.8416C52.9583 15.092 52.2815 14.8856 51.8112 14.4726C51.3409 14.0596 51.1057 13.3886 51.1057 12.4594V7.21142H49.9873V5.61121H51.1057V3.25391H53.0845V5.61121H55.3902V7.21142H53.0845Z" fill="#211F23" style="fill:#211F23;fill:color(display-p3 0.1294 0.1216 0.1373);fill-opacity:1;"/>
<path d="M48.8656 10.12C48.8656 10.4756 48.8427 10.7968 48.7968 11.0836H41.5528C41.6102 11.8407 41.8912 12.4486 42.396 12.9075C42.9007 13.3663 43.5201 13.5957 44.2543 13.5957C45.3096 13.5957 46.0552 13.1541 46.4911 12.2708H48.6075C48.3208 13.1426 47.7988 13.8596 47.0417 14.4217C46.2961 14.9723 45.367 15.2476 44.2543 15.2476C43.3481 15.2476 42.5336 15.0468 41.8109 14.6453C41.0997 14.2324 40.5376 13.6588 40.1247 12.9247C39.7232 12.1791 39.5225 11.3187 39.5225 10.3437C39.5225 9.36866 39.7175 8.51407 40.1075 7.77992C40.509 7.0343 41.0653 6.46075 41.7765 6.05926C42.4992 5.65778 43.3251 5.45703 44.2543 5.45703C45.149 5.45703 45.9463 5.65204 46.646 6.04206C47.3457 6.43207 47.8906 6.98268 48.2806 7.69389C48.6706 8.39362 48.8656 9.20233 48.8656 10.12ZM46.8181 9.50058C46.8066 8.7779 46.5485 8.19861 46.0438 7.76271C45.539 7.32681 44.9139 7.10886 44.1682 7.10886C43.4914 7.10886 42.9122 7.32681 42.4304 7.76271C41.9486 8.18714 41.6618 8.76643 41.57 9.50058H46.8181Z" fill="#211F23" style="fill:#211F23;fill:color(display-p3 0.1294 0.1216 0.1373);fill-opacity:1;"/>
<path d="M34.4263 15.2476C33.6806 15.2476 33.0096 15.1157 32.4131 14.8518C31.8281 14.5765 31.3635 14.2094 31.0194 13.7506C30.6752 13.2803 30.4917 12.7584 30.4688 12.1848H32.4991C32.5335 12.5863 32.7228 12.9247 33.0669 13.2C33.4225 13.4638 33.8642 13.5957 34.3918 13.5957C34.9425 13.5957 35.3669 13.4925 35.6651 13.286C35.9749 13.0681 36.1297 12.7928 36.1297 12.4601C36.1297 12.1045 35.9576 11.8407 35.6135 11.6686C35.2809 11.4965 34.7475 11.3073 34.0133 11.1008C33.3021 10.9058 32.7228 10.7165 32.2754 10.533C31.8281 10.3494 31.4381 10.0684 31.1054 9.68985C30.7842 9.31131 30.6236 8.81231 30.6236 8.19288C30.6236 7.68815 30.7727 7.22931 31.071 6.81635C31.3692 6.39192 31.7937 6.05926 32.3443 5.81837C32.9063 5.57748 33.5487 5.45703 34.2714 5.45703C35.3497 5.45703 36.2157 5.73234 36.8696 6.28295C37.5349 6.82209 37.8905 7.56197 37.9364 8.5026H35.9749C35.9404 8.07817 35.7684 7.73977 35.4587 7.48741C35.1489 7.23505 34.7302 7.10886 34.2026 7.10886C33.6864 7.10886 33.2906 7.20637 33.0153 7.40137C32.74 7.59638 32.6024 7.85448 32.6024 8.17567C32.6024 8.42803 32.6941 8.64025 32.8777 8.81232C33.0612 8.98438 33.2849 9.12203 33.5487 9.22527C33.8126 9.31704 34.2026 9.43749 34.7188 9.58661C35.407 9.77015 35.9691 9.95942 36.405 10.1544C36.8524 10.338 37.2367 10.6133 37.5579 10.9803C37.879 11.3474 38.0454 11.8349 38.0569 12.4429C38.0569 12.982 37.9077 13.4638 37.6095 13.8883C37.3112 14.3127 36.8868 14.6453 36.3362 14.8862C35.7971 15.1271 35.1604 15.2476 34.4263 15.2476Z" fill="#211F23" style="fill:#211F23;fill:color(display-p3 0.1294 0.1216 0.1373);fill-opacity:1;"/>
<path d="M25.2349 15.2476C24.4892 15.2476 23.8182 15.1157 23.2217 14.8518C22.6367 14.5765 22.1721 14.2094 21.828 13.7506C21.4838 13.2803 21.3003 12.7584 21.2773 12.1848H23.3077C23.3421 12.5863 23.5314 12.9247 23.8755 13.2C24.2311 13.4638 24.6728 13.5957 25.2004 13.5957C25.7511 13.5957 26.1755 13.4925 26.4737 13.286C26.7834 13.0681 26.9383 12.7928 26.9383 12.4601C26.9383 12.1045 26.7662 11.8407 26.4221 11.6686C26.0895 11.4965 25.556 11.3073 24.8219 11.1008C24.1107 10.9058 23.5314 10.7165 23.084 10.533C22.6367 10.3494 22.2466 10.0684 21.914 9.68985C21.5928 9.31131 21.4322 8.81231 21.4322 8.19288C21.4322 7.68815 21.5813 7.22931 21.8796 6.81635C22.1778 6.39192 22.6023 6.05926 23.1529 5.81837C23.7149 5.57748 24.3573 5.45703 25.08 5.45703C26.1583 5.45703 27.0243 5.73234 27.6782 6.28295C28.3435 6.82209 28.6991 7.56197 28.745 8.5026H26.7834C26.749 8.07817 26.577 7.73977 26.2673 7.48741C25.9575 7.23505 25.5388 7.10886 25.0112 7.10886C24.495 7.10886 24.0992 7.20637 23.8239 7.40137C23.5486 7.59638 23.411 7.85448 23.411 8.17567C23.411 8.42803 23.5027 8.64025 23.6863 8.81232C23.8698 8.98438 24.0935 9.12203 24.3573 9.22527C24.6212 9.31704 25.0112 9.43749 25.5274 9.58661C26.2156 9.77015 26.7777 9.95942 27.2136 10.1544C27.661 10.338 28.0453 10.6133 28.3665 10.9803C28.6876 11.3474 28.854 11.8349 28.8654 12.4429C28.8654 12.982 28.7163 13.4638 28.4181 13.8883C28.1198 14.3127 27.6954 14.6453 27.1448 14.8862C26.6056 15.1271 25.969 15.2476 25.2349 15.2476Z" fill="#211F23" style="fill:#211F23;fill:color(display-p3 0.1294 0.1216 0.1373);fill-opacity:1;"/>
<path fill-rule="evenodd" clip-rule="evenodd" d="M6.63334 7.2611C6.26189 7.96029 6.07617 8.76326 6.07617 9.67002C6.07617 10.5768 6.26189 11.3907 6.63334 12.1117C7.01571 12.8218 7.52917 13.379 8.17374 13.7832C8.8183 14.1765 9.52841 14.3732 10.3041 14.3732C10.9496 14.3732 11.5299 14.2521 12.045 14.01V12.4068C11.638 12.6361 11.1997 12.7508 10.7301 12.7508C10.2604 12.7508 9.81246 12.6307 9.38639 12.3903C8.97125 12.139 8.63258 11.7785 8.37038 11.3087C8.11911 10.839 7.99348 10.2927 7.99348 9.67002C7.99348 9.04731 8.11911 8.512 8.37038 8.06408C8.63258 7.60524 8.97125 7.2611 9.38639 7.03168C9.80153 6.79134 10.2495 6.67116 10.7301 6.67116C11.2108 6.67116 11.6588 6.79134 12.0739 7.03168C12.489 7.27203 12.8222 7.62162 13.0735 8.08046C13.3262 8.52272 13.4572 9.04109 13.4663 9.63559H13.4718V14.2231H13.4668V14.2257H15.3513V5.19631H13.4668V6.50729C13.15 6.09215 12.7239 5.74802 12.1886 5.4749C11.6642 5.19085 11.047 5.04883 10.3369 5.04883C9.55026 5.04883 8.82923 5.24548 8.17374 5.63877C7.52917 6.02114 7.01571 6.56192 6.63334 7.2611Z" fill="white" style="fill:white;fill-opacity:1;"/>
</svg>
