<svg width="16" height="16" viewBox="0 0 16 16" fill="none" xmlns="http://www.w3.org/2000/svg">
    <rect width="16" height="16" fill="none" />
    <path fill-rule="evenodd" clip-rule="evenodd"
        d="M3.75785 11.5351C3.56259 11.7304 3.56259 12.047 3.75785 12.2422C3.95311 12.4375 4.26969 12.4375 4.46496 12.2422L8 8.70719L11.5359 12.2431C11.7312 12.4384 12.0478 12.4384 12.2431 12.2431C12.4383 12.0479 12.4383 11.7313 12.2431 11.536L8.70711 8.00008L12.2431 4.46406C12.4384 4.2688 12.4384 3.95221 12.2431 3.75695C12.0479 3.56169 11.7313 3.56169 11.536 3.75695L8 7.29298L4.46488 3.75786C4.26962 3.56259 3.95304 3.56259 3.75777 3.75786C3.56251 3.95312 3.56251 4.2697 3.75777 4.46496L7.29289 8.00008L3.75785 11.5351Z"
        fill="#797A7A" />
</svg>