<svg width="19" height="18" viewBox="0 0 19 18" fill="none" xmlns="http://www.w3.org/2000/svg">
<path d="M8.5 10V0H10.5V10H8.5ZM9.5 18C8.26667 18 7.10417 17.7625 6.0125 17.2875C4.92083 16.8125 3.96667 16.1667 3.15 15.35C2.33333 14.5333 1.6875 13.5792 1.2125 12.4875C0.7375 11.3958 0.5 10.2333 0.5 9C0.5 7.66667 0.775 6.40833 1.325 5.225C1.875 4.04167 2.65 3.01667 3.65 2.15L5.05 3.55C4.25 4.21667 3.625 5.025 3.175 5.975C2.725 6.925 2.5 7.93333 2.5 9C2.5 10.9333 3.18333 12.5833 4.55 13.95C5.91667 15.3167 7.56667 16 9.5 16C11.45 16 13.1042 15.3167 14.4625 13.95C15.8208 12.5833 16.5 10.9333 16.5 9C16.5 7.93333 16.2792 6.925 15.8375 5.975C15.3958 5.025 14.7667 4.21667 13.95 3.55L15.35 2.15C16.35 3.01667 17.125 4.04167 17.675 5.225C18.225 6.40833 18.5 7.66667 18.5 9C18.5 10.2333 18.2625 11.3958 17.7875 12.4875C17.3125 13.5792 16.6708 14.5333 15.8625 15.35C15.0542 16.1667 14.1042 16.8125 13.0125 17.2875C11.9208 17.7625 10.75 18 9.5 18Z" fill="white" style="fill:white;fill-opacity:1;"/>
</svg>
