<svg width="20" height="20" viewBox="0 0 20 20" fill="none" xmlns="http://www.w3.org/2000/svg">
<g id="Frame 1" clip-path="url(#clip0_303_28833)">
<path id="Vector" d="M13.649 11.4969C13.649 9.56234 12.4882 8.89904 10.1667 8.62271C8.50842 8.40157 8.17677 7.95941 8.17677 7.18547C8.17677 6.41153 8.72956 5.91419 9.83502 5.91419C10.83 5.91419 11.3828 6.24584 11.6591 7.07497C11.7144 7.24079 11.8802 7.3513 12.0461 7.3513H12.9304C13.1515 7.3513 13.3173 7.18547 13.3173 6.96446V6.90914C13.0962 5.69305 12.1012 4.75342 10.83 4.64291V3.31631C10.83 3.09517 10.6641 2.92934 10.3878 2.87402H9.55869C9.33754 2.87402 9.17172 3.03985 9.1164 3.31631V4.58759C7.45815 4.80874 6.40801 5.91419 6.40801 7.29611C6.40801 9.12018 7.51347 9.83867 9.83502 10.1151C11.3828 10.3915 11.8802 10.7231 11.8802 11.6076C11.8802 12.492 11.1063 13.1 10.0562 13.1C8.61892 13.1 8.12145 12.4919 7.95562 11.6627C7.90044 11.4417 7.73461 11.3311 7.56879 11.3311H6.62902C6.40801 11.3311 6.24219 11.4969 6.24219 11.7181V11.7734C6.4632 13.1552 7.34764 14.1501 9.17172 14.4266V15.7532C9.17172 15.9742 9.33754 16.14 9.61387 16.1953H10.443C10.6641 16.1953 10.83 16.0295 10.8853 15.7532V14.4266C12.5435 14.1501 13.649 12.9893 13.649 11.4969Z" fill="#211F23" style="fill:#211F23;fill:color(display-p3 0.1294 0.1216 0.1373);fill-opacity:1;"/>
<path id="Vector_2" d="M7.1809 17.301C2.86945 15.7534 0.658406 10.9444 2.26147 6.68819C3.09059 4.36664 4.91467 2.59788 7.1809 1.76876C7.40204 1.65825 7.51255 1.49242 7.51255 1.21596V0.442156C7.51255 0.221011 7.40204 0.0551866 7.1809 0C7.12558 0 7.01507 -3.5424e-07 6.95976 0.0551862C1.70868 1.71344 -1.16567 7.2963 0.492581 12.5474C1.48753 15.6427 3.8644 18.0196 6.95976 19.0146C7.1809 19.1251 7.40204 19.0146 7.45723 18.7934C7.51255 18.7382 7.51255 18.6829 7.51255 18.5724V17.7985C7.51255 17.6326 7.34672 17.4116 7.1809 17.301ZM13.0401 0.0551862C12.8189 -0.0553196 12.5978 0.0551864 12.5426 0.276331C12.4873 0.33165 12.4873 0.386836 12.4873 0.497475V1.27128C12.4873 1.49242 12.6531 1.71344 12.8189 1.82407C17.1304 3.37169 19.3414 8.18061 17.7384 12.4369C16.9093 14.7584 15.0852 16.5272 12.8189 17.3563C12.5978 17.4668 12.4873 17.6326 12.4873 17.9091V18.6829C12.4873 18.904 12.5978 19.0699 12.8189 19.1251C12.8743 19.1251 12.9848 19.1251 13.0401 19.0699C18.2912 17.4116 21.1655 11.8288 19.5073 6.57768C18.5123 3.42701 16.0801 1.05014 13.0401 0.0551862Z" fill="#211F23" style="fill:#211F23;fill:color(display-p3 0.1294 0.1216 0.1373);fill-opacity:1;"/>
</g>
<defs>
<clipPath id="clip0_303_28833">
<rect width="20" height="20" fill="white" style="fill:white;fill-opacity:1;"/>
</clipPath>
</defs>
</svg>
