<svg width="80" height="21" viewBox="0 0 80 21" fill="none" xmlns="http://www.w3.org/2000/svg">
<g clip-path="url(#clip0_2332_1964)">
<path d="M2.29562 7.38126L13.5711 0.839498C15.9527 -0.539912 18.9666 1.153 18.9666 3.91183V17.0581C18.9666 19.8169 15.9527 21.5098 13.5501 20.1095L2.27454 13.505C-0.0648727 12.1256 -0.0648726 8.73979 2.29562 7.38126Z" fill="#D21A4D"/>
<path d="M21.2427 8.11256C21.2427 7.00487 21.2216 6.10613 21.1584 5.20744H22.9076L23.013 6.98393H23.0551C23.5821 5.95983 24.8466 4.97754 26.6381 4.97754C28.1344 4.97754 30.4528 5.85536 30.4528 9.5338V15.9292H28.4927V9.76369C28.4927 8.02897 27.8394 6.58686 25.9847 6.58686C24.6991 6.58686 23.6874 7.48554 23.3503 8.57235C23.2659 8.82318 23.2238 9.15755 23.2238 9.47109V15.9292H21.2427V8.11256Z" fill="#211F23"/>
<path d="M42.9504 5.20744C42.9083 5.98077 42.8661 6.83763 42.8661 8.15439V14.3826C42.8661 16.8489 42.3814 18.3537 41.3276 19.2732C40.2739 20.2556 38.7564 20.5691 37.3864 20.5691C36.1009 20.5691 34.6677 20.2556 33.7825 19.6913L34.2672 18.2073C34.9838 18.6463 36.1009 19.0434 37.4497 19.0434C39.4519 19.0434 40.9272 17.9984 40.9272 15.3022V14.1109H40.885C40.2739 15.1141 39.1147 15.9083 37.4497 15.9083C34.773 15.9083 32.8551 13.6511 32.8551 10.6833C32.8551 7.04664 35.2367 4.97754 37.7237 4.97754C39.5994 4.97754 40.6321 5.95983 41.0958 6.83763H41.138L41.2223 5.22834H42.9504V5.20744ZM40.9272 9.45021C40.9272 9.11578 40.9061 8.82318 40.8218 8.57235C40.4635 7.44377 39.494 6.50326 38.082 6.50326C36.2062 6.50326 34.8574 8.07074 34.8574 10.5579C34.8574 12.6688 35.9322 14.4244 38.0609 14.4244C39.2622 14.4244 40.3582 13.672 40.7797 12.4389C40.885 12.1045 40.9272 11.7283 40.9272 11.3939V9.45021Z" fill="#211F23"/>
<path d="M52.1194 15.9503L51.9719 14.5918H51.9086C51.2975 15.4278 50.1383 16.1802 48.5998 16.1802C46.4079 16.1802 45.2908 14.6545 45.2908 13.1079C45.2908 10.5162 47.6092 9.09507 51.8033 9.11596V8.88607C51.8033 8.00827 51.5503 6.39891 49.3374 6.39891C48.3258 6.39891 47.272 6.71245 46.5132 7.19312L46.0706 5.8973C46.9558 5.31212 48.2625 4.93591 49.6325 4.93591C52.9413 4.93591 53.7422 7.17223 53.7422 9.32497V13.3378C53.7422 14.2783 53.7844 15.177 53.9108 15.9085H52.1194V15.9503ZM51.8243 10.4745C49.6746 10.4327 47.2509 10.8088 47.2509 12.8989C47.2509 14.1529 48.0939 14.759 49.1056 14.759C50.5176 14.759 51.4028 13.8812 51.7189 12.9616C51.7822 12.7526 51.8243 12.5436 51.8243 12.3346V10.4745Z" fill="#211F23"/>
<path d="M66.2189 5.20744C66.1772 5.98077 66.1348 6.83763 66.1348 8.15439V14.3826C66.1348 16.8489 65.6501 18.3537 64.596 19.2732C63.5425 20.2556 62.0248 20.5691 60.6548 20.5691C59.3694 20.5691 57.9362 20.2556 57.0511 19.6913L57.5358 18.2073C58.2524 18.6463 59.3694 19.0434 60.7184 19.0434C62.7207 19.0434 64.196 17.9984 64.196 15.3022V14.1109H64.1536C63.5425 15.1141 62.3831 15.9083 60.7184 15.9083C58.0416 15.9083 56.1238 13.6511 56.1238 10.6833C56.1238 7.04664 58.5053 4.97754 60.9925 4.97754C62.8678 4.97754 63.9007 5.95983 64.3642 6.83763H64.4066L64.4907 5.22834H66.2189V5.20744ZM64.196 9.45021C64.196 9.11578 64.1748 8.82318 64.0901 8.57235C63.7319 7.44377 62.7625 6.50326 61.3507 6.50326C59.4748 6.50326 58.1259 8.07074 58.1259 10.5579C58.1259 12.6688 59.2008 14.4244 61.3295 14.4244C62.5307 14.4244 63.6266 13.672 64.0484 12.4389C64.1536 12.1045 64.196 11.7283 64.196 11.3939V9.45021Z" fill="#211F23"/>
<path d="M73.9536 4.97754C71.9936 4.97754 70.2653 5.98077 69.2747 7.50648C69.2747 7.50648 68.853 8.17527 68.6212 8.92766C68.5577 9.15755 68.4947 9.3875 68.4736 9.61739C68.4312 10.0145 68.3895 10.537 68.4524 11.1222C68.4736 11.3312 68.5159 11.5402 68.5577 11.7283H68.5371C68.6212 12.1881 68.79 12.6688 69.0636 13.1495H69.0847C69.1689 13.3167 69.2747 13.4839 69.4012 13.6511C69.4012 13.672 69.4218 13.672 69.4218 13.6929C70.2653 14.8633 71.6983 15.762 73.89 15.8665C73.9536 15.8665 74.0165 15.8665 74.1006 15.8665C75.1547 15.8665 76.293 15.4903 77.4942 14.7797C77.8312 14.5707 77.9365 14.1318 77.7259 13.7974C77.5153 13.463 77.0724 13.3585 76.7353 13.5675C75.6818 14.1945 74.7542 14.4871 73.9324 14.4662C70.7289 14.3199 70.0124 12.2299 69.8647 11.0386H78.7795C78.9695 11.0386 79.1589 10.955 79.2853 10.8296C79.4118 10.6833 79.4965 10.4952 79.4965 10.3071C79.4118 7.31836 76.9671 4.97754 73.9536 4.97754ZM69.9277 9.61739C70.3283 7.77814 71.9724 6.39873 73.9536 6.39873C75.9347 6.39873 77.5995 7.75726 77.9789 9.61739H69.9277Z" fill="#211F23"/>
<path d="M11.5908 4.97754C9.63077 4.97754 7.90253 5.98077 6.912 7.50648C6.912 7.50648 6.49047 8.13345 6.25864 8.92766C6.21649 9.03219 6.19541 9.15755 6.17434 9.26208V9.28296C6.15327 9.3875 6.13219 9.51286 6.11111 9.61739C6.11111 9.61739 5.94251 10.5997 6.13219 11.4984C6.13219 11.5193 6.13219 11.5193 6.13219 11.5402C6.15327 11.6029 6.15327 11.6656 6.17434 11.7283C6.17434 11.7283 6.27972 12.3344 6.80659 13.3376C7.60747 14.6752 9.08283 15.7411 11.5065 15.8665C11.5698 15.8665 11.633 15.8665 11.7173 15.8665C12.75 15.8665 13.8881 15.5112 15.0894 14.7797C15.3845 14.6125 15.532 14.2363 15.4266 13.9228C15.258 13.4839 14.7522 13.3167 14.3728 13.5466C13.3191 14.1736 12.3917 14.4453 11.5698 14.4453C9.10388 14.4453 8.05006 12.6688 7.755 12.0418C7.64965 11.791 7.58641 11.5193 7.56536 11.3939C7.56536 11.373 7.56536 11.3521 7.5443 11.3312C7.52318 11.164 7.50212 11.0386 7.50212 11.0386C7.45994 10.6415 7.43888 10.1608 7.5443 9.65916C7.62859 9.26208 7.77612 8.86495 7.83936 8.73959C7.86041 8.69776 7.88147 8.67688 7.88147 8.63506C8.55589 7.29747 9.94689 6.37785 11.5698 6.37785C13.5509 6.37785 15.2159 7.73637 15.5952 9.59651H11.2115C10.811 9.59651 10.4949 9.90999 10.4949 10.3071C10.4949 10.7042 10.811 11.0177 11.2115 11.0177H16.4172C16.6069 11.0177 16.7965 10.9341 16.923 10.8087C17.0495 10.6624 17.1338 10.4743 17.1338 10.2862C17.0495 7.31836 14.6046 4.97754 11.5908 4.97754Z" fill="white"/>
</g>
<defs>
<clipPath id="clip0_2332_1964">
<rect width="80" height="21" fill="white"/>
</clipPath>
</defs>
</svg>
