<svg width="32" height="32" viewBox="0 0 32 32" fill="none" xmlns="http://www.w3.org/2000/svg"><g filter="url(#a)"><path d="M11.999 26.32V20.8l-4.12 3.04c1.16 1.08 2.56 1.92 4.12 2.48M20 26.317c1.56-.56 2.96-1.4 4.12-2.48L20 20.757zM4.68 19c.12.4.28.76.48 1.16L6.72 19zm20.6 0 1.56 1.16c.16-.36.32-.76.48-1.16z" fill="#29337A" style="fill:#29337a;fill:color(display-p3 .1608 .2 .4784);fill-opacity:1"/><path d="M12.6 17.4H4.24c.12.56.28 1.08.44 1.6h2.04l-1.56 1.16c.32.68.68 1.28 1.12 1.88L10.4 19H12v.8l-4.68 3.44.56.56 4.12-3v5.52c.52.2 1.04.32 1.6.44V17.4zm15.16 0H18.4v9.36c.56-.12 1.08-.28 1.6-.44V20.8l4.12 3c.56-.52 1.04-1.08 1.52-1.68L21.36 19h2.72l2.44 1.8c.12-.2.24-.44.32-.64L25.28 19h2.04c.16-.52.32-1.04.44-1.6" fill="#fff" style="fill:#fff;fill-opacity:1"/><path d="M6.28 22.04c.32.44.64.84 1 1.24L12 19.84v-.8h-1.6zM21.4 19l4.28 3.12c.16-.2.28-.4.44-.6.04-.04.04-.08.08-.08.12-.2.28-.44.4-.64L24.08 19z" fill="#E51D35" style="fill:#e51d35;fill:color(display-p3 .898 .1137 .2078);fill-opacity:1"/><path d="M20 3.68V9.2l4.12-3.04A11.95 11.95 0 0 0 20 3.68m-8.001 0c-1.56.56-2.96 1.4-4.12 2.48l4.12 3.08zM27.32 11c-.12-.4-.28-.76-.48-1.16L25.28 11zm-20.6 0L5.16 9.84c-.16.4-.32.76-.48 1.16z" fill="#29337A" style="fill:#29337a;fill:color(display-p3 .1608 .2 .4784);fill-opacity:1"/><path d="M19.4 12.598h8.32c-.12-.56-.28-1.08-.44-1.6h-2.04l1.56-1.16c-.32-.68-.68-1.28-1.12-1.88l-4.08 3.04H20v-.8l4.68-3.44-.56-.56-4.12 3v-5.52c-.52-.2-1.04-.32-1.6-.44v9.36zm-15.16 0h9.36v-9.36c-.56.12-1.08.28-1.6.44v5.52l-4.12-3c-.56.52-1.04 1.08-1.52 1.68l4.28 3.12H7.92l-2.44-1.8c-.12.2-.24.44-.32.64l1.56 1.16H4.68c-.16.52-.32 1.04-.44 1.6" fill="#fff" style="fill:#fff;fill-opacity:1"/><path d="M25.72 7.958c-.32-.44-.64-.84-1-1.24L20 10.158v.8h1.6zm-15.12 3.04-4.24-3.12c-.16.2-.28.4-.44.6-.04.04-.04.08-.08.08-.12.2-.28.44-.4.64l2.44 1.8z" fill="#E51D35" style="fill:#e51d35;fill:color(display-p3 .898 .1137 .2078);fill-opacity:1"/><path d="M27.76 12.6H18.4V3.24Q17.26 3 16 3t-2.4.24v9.36H4.24Q4 13.74 4 15t.24 2.4h9.36v9.36q1.14.24 2.4.24t2.4-.24V17.4h9.36Q28 16.26 28 15t-.24-2.4" fill="#E51D35" style="fill:#e51d35;fill:color(display-p3 .898 .1137 .2078);fill-opacity:1"/></g><defs><filter id="a" x="0" y="0" width="32" height="32" filterUnits="userSpaceOnUse" color-interpolation-filters="sRGB"><feFlood flood-opacity="0" result="BackgroundImageFix"/><feColorMatrix in="SourceAlpha" values="0 0 0 0 0 0 0 0 0 0 0 0 0 0 0 0 0 0 127 0" result="hardAlpha"/><feMorphology radius="1" operator="dilate" in="SourceAlpha" result="effect1_dropShadow_2513_8590"/><feOffset dy="1"/><feGaussianBlur stdDeviation="1.5"/><feColorMatrix values="0 0 0 0 0 0 0 0 0 0 0 0 0 0 0 0 0 0 0.15 0"/><feBlend in2="BackgroundImageFix" result="effect1_dropShadow_2513_8590"/><feColorMatrix in="SourceAlpha" values="0 0 0 0 0 0 0 0 0 0 0 0 0 0 0 0 0 0 127 0" result="hardAlpha"/><feOffset dy="1"/><feGaussianBlur stdDeviation="1"/><feColorMatrix values="0 0 0 0 0 0 0 0 0 0 0 0 0 0 0 0 0 0 0.3 0"/><feBlend in2="effect1_dropShadow_2513_8590" result="effect2_dropShadow_2513_8590"/><feBlend in="SourceGraphic" in2="effect2_dropShadow_2513_8590" result="shape"/></filter></defs></svg>