<svg width="24" height="25" viewBox="0 0 24 25" fill="none" xmlns="http://www.w3.org/2000/svg">
<path d="M22.4916 0.400171L13.018 1.20553C11.9508 1.29626 11.3798 2.53488 11.9901 3.43504L17.4085 11.4254C18.0189 12.3256 19.3532 12.2124 19.8096 11.2215L23.8648 2.42579C24.3217 1.43439 23.5588 0.30944 22.4916 0.400171Z" fill="#5A5BEB" style="fill:#5A5BEB;fill:color(display-p3 0.3529 0.3569 0.9216);fill-opacity:1;"/>
<path d="M0.322906 1.92485L1.11013 11.6166C1.19882 12.7085 2.40956 13.2926 3.28945 12.6682L11.0999 7.12499C11.9798 6.50062 11.8692 5.13557 10.9006 4.66867L2.30293 0.520062C1.33385 0.0526502 0.234218 0.833032 0.322906 1.92485Z" fill="#5A5BEB" style="fill:#5A5BEB;fill:color(display-p3 0.3529 0.3569 0.9216);fill-opacity:1;"/>
<path d="M1.8154 24.6022L11.289 23.7969C12.3563 23.7061 12.9272 22.4675 12.3169 21.5674L6.89847 13.577C6.28813 12.6769 4.95385 12.79 4.49746 13.7809L0.442244 22.5766C-0.0146461 23.568 0.748166 24.693 1.8154 24.6022Z" fill="#5A5BEB" style="fill:#5A5BEB;fill:color(display-p3 0.3529 0.3569 0.9216);fill-opacity:1;"/>
<path d="M23.9912 23.0686L23.2039 13.3768C23.1153 12.2849 21.9045 11.7008 21.0246 12.3252L13.2136 17.8684C12.3337 18.4928 12.4443 19.8579 13.4129 20.3248L22.0107 24.4733C22.9797 24.9408 24.0794 24.1604 23.9912 23.0686Z" fill="#5A5BEB" style="fill:#5A5BEB;fill:color(display-p3 0.3529 0.3569 0.9216);fill-opacity:1;"/>
</svg>
