<svg width="16" height="16" viewBox="0 0 16 16" fill="none" xmlns="http://www.w3.org/2000/svg">
<path d="M7.98893 0C12.4076 0 16 3.59245 16 8.01107C16 12.4297 12.4076 16 7.98893 16C3.57031 16 0 12.4297 0 8.01107C0 3.59245 3.57031 0 7.98893 0ZM7.89967 2.94551C7.67617 3.21328 7.56478 3.52604 7.56478 3.86022C7.56478 4.128 7.65404 4.3515 7.78828 4.50716C7.94466 4.66354 8.16745 4.7528 8.39095 4.7528C8.70371 4.7528 8.99362 4.61856 9.2164 4.35078C9.41706 4.10515 9.52917 3.74811 9.52917 3.36895C9.52917 3.14545 9.46204 2.94479 9.30566 2.78841C9.14928 2.63203 8.9265 2.54278 8.70299 2.54278C8.41308 2.54278 8.12246 2.67702 7.89967 2.94479V2.94551ZM5.86888 7.56478L6.13665 7.85469C6.33731 7.63119 6.53867 7.45267 6.6722 7.34128C6.80644 7.25202 6.91784 7.20703 7.0071 7.20703C7.07422 7.20703 7.14134 7.22917 7.18561 7.27416C7.20775 7.34128 7.2306 7.4084 7.2306 7.51979C7.2306 8.07748 7.16348 8.43451 6.87357 9.77337C6.58366 11.1122 6.42728 12.0941 6.42728 12.741C6.42728 12.9867 6.47226 13.1652 6.56152 13.2766C6.62864 13.388 6.76217 13.4772 6.94069 13.4772C7.2306 13.4772 7.65475 13.2537 8.14603 12.8745C8.6373 12.4725 9.12786 11.9148 9.66341 11.2008L9.3735 10.9551C9.19498 11.1786 9.01647 11.3343 8.88222 11.4464C8.74798 11.5357 8.63659 11.6249 8.54733 11.6249C8.48021 11.6249 8.41308 11.5578 8.36881 11.5135C8.34668 11.4464 8.32383 11.3572 8.32383 11.2236C8.32383 11.1344 8.34596 10.8445 8.43522 10.3311C8.50234 9.81765 8.48021 9.81765 8.61374 9.05931C8.63587 8.83581 8.70299 8.52376 8.77012 8.1446C8.94863 7.00638 9.06003 6.31446 9.06003 6.09167C9.06003 5.89102 8.9929 5.7125 8.92578 5.60039C8.83652 5.489 8.70228 5.44401 8.54661 5.44401C8.27884 5.44401 7.92181 5.64466 7.43054 6.0017C6.93926 6.38086 6.4487 6.89427 5.86817 7.56406L5.86888 7.56478Z" fill="#26A66B" fill-opacity="0.5" style="fill:#26A66B;fill:color(display-p3 0.1490 0.6510 0.4196);fill-opacity:0.5;"/>
</svg>
