<svg width="32" height="32" viewBox="0 0 16 16" fill="none" xmlns="http://www.w3.org/2000/svg"><mask id="a" style="mask-type:alpha" maskUnits="userSpaceOnUse" x="0" y="0" width="32" height="32"><path fill="#D9D9D9" style="fill:#d9d9d9;fill:color(display-p3 .851 .851 .851);fill-opacity:1" d="M0 0h16v16H0z"/></mask><g mask="url(#a)"><path d="M7.334 11.334h1.333v-4H7.334zM8.001 6a.65.65 0 0 0 .475-.191.65.65 0 0 0 .191-.476.65.65 0 0 0-.191-.474A.65.65 0 0 0 8 4.667a.65.65 0 0 0-.475.192.65.65 0 0 0-.192.474q0 .285.192.476A.65.65 0 0 0 8 6m0 8.667a6.5 6.5 0 0 1-2.6-.525 6.7 6.7 0 0 1-2.117-1.425A6.7 6.7 0 0 1 1.859 10.6 6.5 6.5 0 0 1 1.334 8q0-1.383.525-2.6a6.7 6.7 0 0 1 1.425-2.117q.9-.9 2.117-1.424A6.5 6.5 0 0 1 8 1.333q1.383 0 2.6.526 1.216.525 2.116 1.425T14.142 5.4t.525 2.6-.525 2.6a6.7 6.7 0 0 1-1.425 2.117q-.9.9-2.116 1.425a6.5 6.5 0 0 1-2.6.525m0-1.333q2.233 0 3.783-1.55T13.334 8t-1.55-3.783-3.783-1.55-3.784 1.55T2.667 8t1.55 3.784 3.784 1.55" fill="#26A66B" fill-opacity=".5" style="fill:#26a66b;fill:color(display-p3 .149 .651 .4196);fill-opacity:.5"/></g></svg>