<svg width="24" height="24" viewBox="0 0 24 24" fill="none" xmlns="http://www.w3.org/2000/svg">
<path d="M10.0531 10.2249L11.8282 6.95703L13.6034 10.2249L16.8713 12.0001L13.6034 13.7753L11.8282 17.0432L10.0531 13.7753L6.78516 12.0001L10.0531 10.2249Z" stroke="white" style="stroke:white;stroke-opacity:1;" stroke-width="1.5" stroke-linecap="round" stroke-linejoin="round"/>
<path d="M21.5892 11.9998C21.5892 14.0123 20.9672 15.9755 19.8084 17.6208C18.6496 19.2661 17.0106 20.5131 15.1157 21.1909C13.2209 21.8688 11.1628 21.9444 9.22335 21.4075C7.28386 20.8706 5.55771 19.7474 4.28121 18.1916C3.00471 16.6358 2.24026 14.7235 2.09251 12.7165C1.94475 10.7095 2.42092 8.70587 3.45582 6.97993C4.49073 5.25398 6.03378 3.89007 7.87373 3.07492C9.71369 2.25977 11.7606 2.03322 13.7343 2.42629" stroke="white" style="stroke:white;stroke-opacity:1;" stroke-width="1.5" stroke-linecap="round" stroke-linejoin="round"/>
<path d="M16.7878 7.8988L21.6416 3.0813" stroke="white" style="stroke:white;stroke-opacity:1;" stroke-width="1.5" stroke-linecap="round" stroke-linejoin="round"/>
<path d="M17.874 3.00879H21.7866V6.95691" stroke="white" style="stroke:white;stroke-opacity:1;" stroke-width="1.5" stroke-linecap="round" stroke-linejoin="round"/>
</svg>
