<svg width="24" height="24" viewBox="0 0 24 24" fill="none" xmlns="http://www.w3.org/2000/svg">
<path d="M10.0531 10.2249L11.8282 6.95703L13.6034 10.2249L16.8713 12.0001L13.6034 13.7753L11.8282 17.0432L10.0531 13.7753L6.78516 12.0001L10.0531 10.2249Z" stroke="white" style="stroke:white;stroke-opacity:1;" stroke-width="1.5" stroke-linecap="round" stroke-linejoin="round"/>
<path d="M21.5885 11.9998C21.5885 14.0123 20.9665 15.9755 19.8077 17.6208C18.6489 19.2661 17.0098 20.5131 15.115 21.1909C13.2202 21.8688 11.1621 21.9444 9.22262 21.4075C7.28313 20.8706 5.55697 19.7474 4.28048 18.1916C3.00398 16.6358 2.23953 14.7235 2.09177 12.7165C1.94402 10.7095 2.42019 8.70587 3.45509 6.97993C4.48999 5.25398 6.03304 3.89007 7.873 3.07492C9.71296 2.25977 11.7599 2.03322 13.7336 2.42629" stroke="white" style="stroke:white;stroke-opacity:1;" stroke-width="1.5" stroke-linecap="round" stroke-linejoin="round"/>
<path d="M16.7871 7.89856L21.6409 3.08105" stroke="white" style="stroke:white;stroke-opacity:1;" stroke-width="1.5" stroke-linecap="round" stroke-linejoin="round"/>
<path d="M17.874 3.00879H21.7866V6.95691" stroke="white" style="stroke:white;stroke-opacity:1;" stroke-width="1.5" stroke-linecap="round" stroke-linejoin="round"/>
</svg>
