<svg width="10" height="11" viewBox="0 0 10 11" fill="none" xmlns="http://www.w3.org/2000/svg">
<path d="M9.49999 4L9.49999 1M9.49999 1H6.49999M9.49999 1L5 5.5M4 1H2.9C2.05992 1 1.63988 1 1.31901 1.16349C1.03677 1.3073 0.8073 1.53677 0.66349 1.81901C0.5 2.13988 0.5 2.55992 0.5 3.4V7.6C0.5 8.44008 0.5 8.86012 0.66349 9.18099C0.8073 9.46323 1.03677 9.6927 1.31901 9.83651C1.63988 10 2.05992 10 2.9 10H7.1C7.94008 10 8.36012 10 8.68099 9.83651C8.96323 9.6927 9.1927 9.46323 9.33651 9.18099C9.5 8.86012 9.5 8.44008 9.5 7.6V6.5" stroke="#797A7A" stroke-linecap="round" stroke-linejoin="round"/>
</svg>
