<svg width="22" height="28" viewBox="0 0 22 28" fill="none" xmlns="http://www.w3.org/2000/svg"><path d="M.334 23.334v-2.667h2.667v-9.333q0-2.767 1.666-4.917Q6.334 4.267 9.001 3.6v-.933q0-.834.583-1.417a1.93 1.93 0 0 1 1.417-.583q.832 0 1.416.583.585.584.584 1.417V3.6q2.666.668 4.333 2.817t1.667 4.917v9.333h2.666v2.667zm10.667 4a2.57 2.57 0 0 1-1.884-.784 2.57 2.57 0 0 1-.783-1.883h5.333q0 1.1-.783 1.883a2.57 2.57 0 0 1-1.883.784m-5.334-6.667h10.667v-9.333q0-2.2-1.567-3.767T11.001 6 7.234 7.567t-1.567 3.767z" fill="#26A66B" style="fill:#26a66b;fill:color(display-p3 .149 .651 .4196);fill-opacity:1"/></svg>