<svg width="32" height="32" viewBox="0 0 32 32" fill="none" xmlns="http://www.w3.org/2000/svg"><mask id="a" style="mask-type:alpha" maskUnits="userSpaceOnUse" x="0" y="0" width="32" height="32"><path fill="#D9D9D9" style="fill:#d9d9d9;fill:color(display-p3 .851 .851 .851);fill-opacity:1" d="M0 0h32v32H0z"/></mask><g mask="url(#a)"><path d="M5.334 25.334v-2.667h2.667v-9.333q0-2.767 1.666-4.917 1.667-2.15 4.334-2.817v-.933q0-.834.583-1.417a1.93 1.93 0 0 1 1.417-.583q.832 0 1.416.583.585.584.584 1.417V5.6q2.666.668 4.333 2.817t1.667 4.917v9.333h2.666v2.667zm10.667 4a2.57 2.57 0 0 1-1.884-.784 2.57 2.57 0 0 1-.783-1.883h5.333q0 1.1-.783 1.883a2.57 2.57 0 0 1-1.883.784m-5.334-6.667h10.667v-9.333q0-2.2-1.567-3.767T16.001 8t-3.767 1.567-1.567 3.767z" fill="#211F23" style="fill:#211f23;fill:color(display-p3 .1294 .1216 .1373);fill-opacity:1"/></g></svg>