<svg width="21" height="20" viewBox="0 0 21 20" fill="none" xmlns="http://www.w3.org/2000/svg">
<path d="M10.5 10.8334C10.9602 10.8334 11.3333 10.4603 11.3333 10C11.3333 9.5398 10.9602 9.16671 10.5 9.16671C10.0397 9.16671 9.66663 9.5398 9.66663 10C9.66663 10.4603 10.0397 10.8334 10.5 10.8334Z" stroke="#7C7D7E" style="stroke:#7C7D7E;stroke:color(display-p3 0.4863 0.4902 0.4941);stroke-opacity:1;" stroke-width="1.66667" stroke-linecap="round" stroke-linejoin="round"/>
<path d="M10.5 5.00004C10.9602 5.00004 11.3333 4.62694 11.3333 4.16671C11.3333 3.70647 10.9602 3.33337 10.5 3.33337C10.0397 3.33337 9.66663 3.70647 9.66663 4.16671C9.66663 4.62694 10.0397 5.00004 10.5 5.00004Z" stroke="#7C7D7E" style="stroke:#7C7D7E;stroke:color(display-p3 0.4863 0.4902 0.4941);stroke-opacity:1;" stroke-width="1.66667" stroke-linecap="round" stroke-linejoin="round"/>
<path d="M10.5 16.6667C10.9602 16.6667 11.3333 16.2936 11.3333 15.8334C11.3333 15.3731 10.9602 15 10.5 15C10.0397 15 9.66663 15.3731 9.66663 15.8334C9.66663 16.2936 10.0397 16.6667 10.5 16.6667Z" stroke="#7C7D7E" style="stroke:#7C7D7E;stroke:color(display-p3 0.4863 0.4902 0.4941);stroke-opacity:1;" stroke-width="1.66667" stroke-linecap="round" stroke-linejoin="round"/>
</svg>
