<svg width="32" height="32" viewBox="0 0 32 32" fill="none" xmlns="http://www.w3.org/2000/svg">
<circle cx="16" cy="16" r="16" fill="#202236" style="fill:#202236;fill:color(display-p3 0.1257 0.1336 0.2125);fill-opacity:1;"/>
<path d="M20.473 19.3865L24.7498 16.8971C24.9766 16.7648 25.1167 16.5196 25.1167 16.2564V11.2776C25.1167 11.0144 24.9766 10.7692 24.7498 10.6369L20.473 8.14752C20.2463 8.01529 19.9649 8.01657 19.7394 8.14752L15.4626 10.6369C15.2359 10.7692 15.0958 11.0144 15.0958 11.2776V20.1748L12.0964 21.9195L9.09699 20.1748V16.684L12.0964 14.9392L14.0744 16.0908V13.749L12.4632 12.8105C12.3523 12.7463 12.225 12.7117 12.0964 12.7117C11.9677 12.7117 11.8404 12.7463 11.7296 12.8105L7.45275 15.2999C7.22604 15.4322 7.08594 15.6774 7.08594 15.9406V20.9194C7.08594 21.1826 7.22604 21.4278 7.45275 21.56L11.7296 24.0495C11.9563 24.1804 12.2365 24.1804 12.4632 24.0495L16.74 21.56C16.9668 21.4278 17.1068 21.1826 17.1068 20.9194V12.0209L17.1603 11.9901L20.105 10.2762L23.1044 12.0209V15.5118L20.105 17.2566L18.1295 16.1075V18.4493L19.7381 19.3852C19.9649 19.5162 20.2463 19.5162 20.4717 19.3852L20.473 19.3865Z" fill="white" style="fill:white;fill-opacity:1;"/>
</svg>
