<svg width="53" height="21" viewBox="0 0 53 21" fill="none" xmlns="http://www.w3.org/2000/svg">
<path d="M30.0756 9.38665C30.0756 12.8927 27.6495 14.4164 25.3565 14.4164C22.7972 14.4164 20.8149 12.5377 20.8149 9.54938C20.8149 6.38357 22.886 4.51959 25.5193 4.51959C28.2265 4.51959 30.0756 6.48713 30.0756 9.38665ZM22.5458 9.4902C22.5458 11.4281 23.744 12.9075 25.4305 12.9075C27.0726 12.9075 28.3152 11.4577 28.3152 9.46062C28.3152 7.95168 27.5164 6.04332 25.4749 6.04332C23.4334 6.04332 22.5458 7.80375 22.5458 9.4902Z" fill="#211F23"/>
<path d="M41.1576 9.38665C41.1576 12.8927 38.7314 14.4164 36.4384 14.4164C33.8792 14.4164 31.8968 12.5377 31.8968 9.54938C31.8968 6.38357 33.9679 4.51959 36.6012 4.51959C39.3232 4.51959 41.1576 6.48713 41.1576 9.38665ZM33.6425 9.4902C33.6425 11.4281 34.8407 12.9075 36.5272 12.9075C38.1693 12.9075 39.4119 11.4577 39.4119 9.46062C39.4119 7.95168 38.6131 6.04332 36.5716 6.04332C34.5301 6.04332 33.6425 7.80375 33.6425 9.4902Z" fill="#211F23"/>
<path d="M42.9936 0.303162H44.7097V14.209H42.9936V0.303162Z" fill="#211F23"/>
<path d="M1.82145 7.2856L13.4048 0.51019C15.8457 -0.924778 18.9523 0.835646 18.9523 3.69079V17.3156C18.9523 20.1707 15.8605 21.9311 13.39 20.4814L1.80666 13.6468C-0.604681 12.2118 -0.60468 8.70578 1.82145 7.2856Z" fill="#26A66B"/>
<path d="M11.851 4.48953C9.97226 4.7706 8.46332 6.08722 8.13786 7.96599C8.10828 8.11393 8.10828 8.27666 8.10828 8.43938V16.132C8.10828 16.2799 8.22662 16.3983 8.37456 16.3983H9.57283C9.72077 16.3983 9.83912 16.2799 9.83912 16.132V12.5224V9.04592C9.83912 7.4926 11.067 6.17598 12.6203 6.16119C14.2772 6.1464 15.6086 7.58137 15.4163 9.28262C15.2979 10.3034 14.3511 11.3981 13.3452 11.6644C12.9162 11.7827 12.5167 11.7827 12.1321 11.7087C11.9102 11.6644 11.7179 11.8419 11.7179 12.049V13.1733C11.7179 13.2916 11.8067 13.3952 11.925 13.4248C12.1617 13.4692 12.3984 13.484 12.6351 13.484C15.1648 13.484 17.2063 11.4129 17.1619 8.88319C17.1175 6.1316 14.573 4.0901 11.851 4.48953Z" fill="white" stroke="white" stroke-width="0.431239" stroke-miterlimit="10"/>
<path d="M47.0002 12.2269C47.518 12.5671 48.4204 12.9222 49.2932 12.9222C50.5506 12.9222 51.1424 12.2861 51.1424 11.502C51.1424 10.6736 50.6542 10.215 49.3672 9.74158C47.6511 9.13505 46.8375 8.18826 46.8375 7.03437C46.8375 5.49585 48.0801 4.2384 50.1364 4.2384C51.098 4.2384 51.956 4.51948 52.4886 4.83014L52.0596 6.08759C51.6897 5.85089 50.9945 5.54023 50.1068 5.54023C49.0861 5.54023 48.5091 6.13197 48.5091 6.84206C48.5091 7.62611 49.0861 7.98115 50.3287 8.45455C51.9856 9.09067 52.8288 9.9191 52.8288 11.3393C52.8288 13.0109 51.527 14.1944 49.2636 14.1944C48.2133 14.1944 47.2517 13.9429 46.5712 13.5435L47.0002 12.2269Z" fill="#211F23"/>
</svg>
