<svg width="32" height="32" viewBox="0 0 32 32" fill="none" xmlns="http://www.w3.org/2000/svg"><g clip-path="url(#a)" filter="url(#b)"><path d="M4 15c0 1.468.264 2.874.746 4.174L16 20.218l11.254-1.044c.482-1.3.746-2.706.746-4.174s-.264-2.874-.746-4.174L16 9.783 4.746 10.826A12 12 0 0 0 4 15" fill="#FFDA44" style="fill:#ffda44;fill:color(display-p3 1 .8549 .2667);fill-opacity:1"/><path d="M27.253 10.826C25.558 6.256 21.16 3 16 3S6.442 6.257 4.746 10.826zM4.746 19.174C6.442 23.744 10.84 27 16 27s9.558-3.257 11.253-7.826z" fill="#D80027" style="fill:#d80027;fill:color(display-p3 .8471 0 .1529);fill-opacity:1"/></g><defs><clipPath id="a"><path fill="#fff" style="fill:#fff;fill-opacity:1" transform="translate(4 3)" d="M0 0h24v24H0z"/></clipPath><filter id="b" x="0" y="0" width="32" height="32" filterUnits="userSpaceOnUse" color-interpolation-filters="sRGB"><feFlood flood-opacity="0" result="BackgroundImageFix"/><feColorMatrix in="SourceAlpha" values="0 0 0 0 0 0 0 0 0 0 0 0 0 0 0 0 0 0 127 0" result="hardAlpha"/><feMorphology radius="1" operator="dilate" in="SourceAlpha" result="effect1_dropShadow_2513_8585"/><feOffset dy="1"/><feGaussianBlur stdDeviation="1.5"/><feColorMatrix values="0 0 0 0 0 0 0 0 0 0 0 0 0 0 0 0 0 0 0.15 0"/><feBlend in2="BackgroundImageFix" result="effect1_dropShadow_2513_8585"/><feColorMatrix in="SourceAlpha" values="0 0 0 0 0 0 0 0 0 0 0 0 0 0 0 0 0 0 127 0" result="hardAlpha"/><feOffset dy="1"/><feGaussianBlur stdDeviation="1"/><feColorMatrix values="0 0 0 0 0 0 0 0 0 0 0 0 0 0 0 0 0 0 0.3 0"/><feBlend in2="effect1_dropShadow_2513_8585" result="effect2_dropShadow_2513_8585"/><feBlend in="SourceGraphic" in2="effect2_dropShadow_2513_8585" result="shape"/></filter></defs></svg>