<svg width="31" height="31" viewBox="0 0 31 31" fill="none" xmlns="http://www.w3.org/2000/svg">
<mask id="mask0_2024_28397" style="mask-type:alpha" maskUnits="userSpaceOnUse" x="0" y="0" width="31" height="31">
<rect width="31" height="31" fill="#D9D9D9" style="fill:#D9D9D9;fill:color(display-p3 0.8510 0.8510 0.8510);fill-opacity:1;"/>
</mask>
<g mask="url(#mask0_2024_28397)">
<path d="M6.45833 27.125C5.74792 27.125 5.13976 26.872 4.63385 26.3661C4.12795 25.8602 3.875 25.2521 3.875 24.5417V6.45833C3.875 5.74792 4.12795 5.13976 4.63385 4.63385C5.13976 4.12795 5.74792 3.875 6.45833 3.875H24.5417C25.2521 3.875 25.8602 4.12795 26.3661 4.63385C26.8721 5.13976 27.125 5.74792 27.125 6.45833V9.6875H24.5417V6.45833H6.45833V24.5417H24.5417V21.3125H27.125V24.5417C27.125 25.2521 26.8721 25.8602 26.3661 26.3661C25.8602 26.872 25.2521 27.125 24.5417 27.125H6.45833ZM16.7917 21.9583C16.0813 21.9583 15.4731 21.7054 14.9672 21.1995C14.4613 20.6936 14.2083 20.0854 14.2083 19.375V11.625C14.2083 10.9146 14.4613 10.3064 14.9672 9.80052C15.4731 9.29462 16.0813 9.04167 16.7917 9.04167H25.8333C26.5438 9.04167 27.1519 9.29462 27.6578 9.80052C28.1637 10.3064 28.4167 10.9146 28.4167 11.625V19.375C28.4167 20.0854 28.1637 20.6936 27.6578 21.1995C27.1519 21.7054 26.5438 21.9583 25.8333 21.9583H16.7917ZM25.8333 19.375V11.625H16.7917V19.375H25.8333ZM20.6667 17.4375C21.2049 17.4375 21.6623 17.2491 22.0391 16.8724C22.4158 16.4957 22.6042 16.0382 22.6042 15.5C22.6042 14.9618 22.4158 14.5043 22.0391 14.1276C21.6623 13.7509 21.2049 13.5625 20.6667 13.5625C20.1285 13.5625 19.671 13.7509 19.2943 14.1276C18.9175 14.5043 18.7292 14.9618 18.7292 15.5C18.7292 16.0382 18.9175 16.4957 19.2943 16.8724C19.671 17.2491 20.1285 17.4375 20.6667 17.4375Z" fill="#5A5BEB" style="fill:#5A5BEB;fill:color(display-p3 0.3529 0.3569 0.9216);fill-opacity:1;"/>
</g>
</svg>
