<svg width="114" height="22" viewBox="0 0 114 22" fill="none" xmlns="http://www.w3.org/2000/svg">
<g clip-path="url(#clip0_5728_785)">
<path d="M19.9689 0.0163717L11.4412 0.743856C10.4805 0.825816 9.96654 1.94467 10.5159 2.7578L15.3933 9.97556C15.9427 10.7887 17.1438 10.6865 17.5546 9.79141L21.2049 1.84614C21.6162 0.950591 20.9295 -0.0655856 19.9689 0.0163717Z" fill="#D21A4D" style="fill:#D21A4D;fill:color(display-p3 0.8235 0.1020 0.3020);fill-opacity:1;"/>
<path d="M0.0142979 1.39382L0.722922 10.1485C0.802752 11.1348 1.8926 11.6624 2.68464 11.0984L9.71522 6.09115C10.5073 5.52715 10.4077 4.29409 9.53582 3.87233L1.79662 0.124861C0.924297 -0.297356 -0.0655344 0.407569 0.0142979 1.39382Z" fill="#5A5BEB" style="fill:#5A5BEB;fill:color(display-p3 0.3529 0.3569 0.9216);fill-opacity:1;"/>
<path d="M1.35768 21.8794L9.88535 21.1519C10.8461 21.0699 11.36 19.9511 10.8106 19.138L5.9332 11.9202C5.3838 11.1071 4.18275 11.2093 3.77193 12.1044L0.121624 20.0496C-0.289646 20.9452 0.397 21.9613 1.35768 21.8794Z" fill="#E0A225" style="fill:#E0A225;fill:color(display-p3 0.8784 0.6353 0.1451);fill-opacity:1;"/>
<path d="M21.3201 20.4921L20.6115 11.7374C20.5317 10.7512 19.4418 10.2235 18.6498 10.7876L11.6187 15.7948C10.8267 16.3588 10.9262 17.5919 11.7981 18.0136L19.5374 21.7611C20.4097 22.1833 21.3995 21.4784 21.3201 20.4921Z" fill="#26A66B" style="fill:#26A66B;fill:color(display-p3 0.1490 0.6510 0.4196);fill-opacity:1;"/>
<path d="M33.4808 18.7034C32.4654 18.7034 31.559 18.4502 30.7616 17.9441C29.9637 17.4381 29.3331 16.7456 28.8689 15.8671C28.4048 14.9891 28.1729 13.9913 28.1729 12.8743C28.1729 11.7578 28.4048 10.7637 28.8689 9.893C29.3331 9.0219 29.9637 8.3372 30.7616 7.8381C31.559 7.33945 32.4659 7.0899 33.4808 7.0899C34.293 7.0899 35.0035 7.24645 35.6125 7.5591C36.2216 7.8717 36.7145 8.31095 37.0917 8.87685V2.65039H39.8764L39.9409 18.7034H37.4608L37.0921 16.8497C36.7441 17.341 36.2835 17.7729 35.7107 18.1449C35.1376 18.5169 34.3944 18.7034 33.4808 18.7034ZM34.0683 16.2019C34.9676 16.2019 35.7031 15.8929 36.2763 15.275C36.849 14.6576 37.1356 13.8642 37.1356 12.8964C37.1356 11.9286 36.849 11.1357 36.2763 10.5178C35.7031 9.89995 34.9671 9.591 34.0683 9.591C33.1835 9.591 32.4511 9.89625 31.8712 10.5063C31.2908 11.1173 31.0011 11.906 31.0011 12.8738C31.0011 13.8421 31.2913 14.6382 31.8712 15.2635C32.4511 15.8892 33.1835 16.2019 34.0683 16.2019Z" fill="black" style="fill:black;fill-opacity:1;"/>
<path d="M46.9591 18.7048C45.8715 18.7048 44.9068 18.4663 44.0659 17.9902C43.2245 17.5137 42.5648 16.8438 42.0862 15.9804C41.6077 15.1171 41.3682 14.1194 41.3682 12.9876C41.3682 11.8411 41.6037 10.8213 42.075 9.92805C42.5459 9.0348 43.1989 8.33865 44.0331 7.84C44.8669 7.34135 45.8496 7.0918 46.9811 7.0918C48.0396 7.0918 48.9751 7.3303 49.7873 7.8064C50.5997 8.28295 51.2342 8.93445 51.6907 9.76045C52.1472 10.5865 52.3762 11.5064 52.3762 12.5184C52.3762 12.6824 52.3722 12.8536 52.3652 13.0323C52.3577 13.2109 52.3467 13.3974 52.3327 13.5908H44.1314C44.1892 14.4546 44.483 15.1319 45.0122 15.6231C45.5414 16.1144 46.1832 16.3603 46.9376 16.3603C47.5032 16.3603 47.9781 16.23 48.3625 15.9694C48.7464 15.7092 49.033 15.3704 49.2218 14.9532H52.0502C51.8467 15.6531 51.5097 16.2899 51.0387 16.8626C50.5672 17.4359 49.9869 17.8866 49.2985 18.214C48.6087 18.5409 47.8292 18.7048 46.9591 18.7048ZM46.9807 9.4142C46.2989 9.4142 45.6971 9.61175 45.175 10.0058C44.653 10.4004 44.3193 10.9999 44.1744 11.8038H49.5478C49.5043 11.0745 49.2433 10.4939 48.7648 10.0616C48.2862 9.63015 47.6911 9.4142 46.9807 9.4142Z" fill="black" style="fill:black;fill-opacity:1;"/>
<path d="M55.2832 18.7032V10.0153H53.8037V7.62567H55.2832V6.33047C55.2832 4.9906 55.6127 4.03796 56.2727 3.47163C56.9327 2.90621 57.8282 2.62305 58.9597 2.62305H60.1562V5.05737H59.3947C58.9162 5.05737 58.5752 5.15452 58.3722 5.34787C58.1692 5.54127 58.0677 5.86912 58.0677 6.33047V7.62567H60.3952V10.0153H58.0677V18.7032H55.2832Z" fill="black" style="fill:black;fill-opacity:1;"/>
<path d="M65.8697 18.7038C64.9412 18.7038 64.1797 18.5509 63.5857 18.2457C62.9907 17.9409 62.5487 17.5348 62.2582 17.0287C61.9682 16.5227 61.8232 15.9647 61.8232 15.3537C61.8232 14.3264 62.2147 13.4926 62.9982 12.8526C63.7812 12.2126 64.9562 11.8921 66.5222 11.8921H69.2637V11.6242C69.2637 10.8649 69.0532 10.3064 68.6327 9.94914C68.2122 9.59184 67.6897 9.41319 67.0662 9.41319C66.5007 9.41319 66.0072 9.55084 65.5872 9.82619C65.1667 10.102 64.9052 10.5071 64.8042 11.0431H62.0847C62.1572 10.2392 62.4222 9.53934 62.8787 8.94354C63.3357 8.34819 63.9262 7.89054 64.6517 7.57004C65.3767 7.25004 66.1887 7.08984 67.0882 7.08984C68.6252 7.08984 69.8362 7.48439 70.7212 8.27359C71.6057 9.06279 72.0482 10.1793 72.0482 11.6237V18.6292H69.6772L69.4162 16.6484C69.0967 17.2442 68.6507 17.7355 68.0782 18.1223C67.5047 18.51 66.7687 18.7038 65.8697 18.7038ZM66.5002 16.4702C67.2977 16.4702 67.9177 16.2023 68.3602 15.6659C68.8022 15.1299 69.0812 14.4678 69.1977 13.6782H66.8262C66.0867 13.6782 65.5572 13.8158 65.2382 14.0912C64.9192 14.367 64.7597 14.7054 64.7597 15.1073C64.7597 15.5392 64.9192 15.8744 65.2382 16.1125C65.5577 16.3514 65.9782 16.4702 66.5002 16.4702Z" fill="black" style="fill:black;fill-opacity:1;"/>
<path d="M79.1091 18.7048C78.0066 18.7048 77.0346 18.4594 76.1936 17.9677C75.3521 17.4764 74.6891 16.7917 74.2031 15.9132C73.7171 15.0347 73.4746 14.0296 73.4746 12.8983C73.4746 11.767 73.7171 10.7619 74.2031 9.8834C74.6891 9.00535 75.3521 8.32025 76.1936 7.82895C77.0346 7.33765 78.0066 7.0918 79.1091 7.0918C80.4866 7.0918 81.6466 7.46015 82.5896 8.1973C83.5321 8.93445 84.1341 9.9506 84.3951 11.2458H81.4586C81.3131 10.7099 81.0266 10.289 80.5991 9.98375C80.1716 9.67895 79.6671 9.5261 79.0876 9.5261C78.3186 9.5261 77.6656 9.824 77.1291 10.4193C76.5926 11.0147 76.3241 11.8411 76.3241 12.8983C76.3241 13.9555 76.5926 14.7819 77.1291 15.3773C77.6656 15.9731 78.3186 16.2705 79.0876 16.2705C79.6671 16.2705 80.1716 16.1218 80.5991 15.8239C81.0266 15.5265 81.3131 15.1019 81.4586 14.5508H84.3951C84.1341 15.8013 83.5321 16.8065 82.5896 17.5657C81.6466 18.325 80.4866 18.7048 79.1091 18.7048Z" fill="black" style="fill:black;fill-opacity:1;"/>
<path d="M91.4137 18.7041C90.2822 18.7041 89.3757 18.4214 88.6942 17.8555C88.0127 17.2901 87.6717 16.285 87.6717 14.8406V10.0162H85.8232V7.62653H87.6717L87.9982 4.65625H90.4567V7.62653H93.3712V10.0162H90.4567V14.8627C90.4567 15.3986 90.5687 15.7674 90.7937 15.9682C91.0182 16.1694 91.4062 16.2698 91.9577 16.2698H93.3062V18.7041H91.4137Z" fill="black" style="fill:black;fill-opacity:1;"/>
<path d="M100.325 18.7038C99.2808 18.7038 98.3413 18.4584 97.5078 17.9666C96.6738 17.4754 96.0138 16.7939 95.5283 15.9232C95.0423 15.0521 94.7998 14.0437 94.7998 12.8968C94.7998 11.7503 95.0458 10.7415 95.5393 9.87039C96.0323 8.99924 96.6953 8.31824 97.5303 7.82699C98.3638 7.33569 99.3028 7.08984 100.347 7.08984C101.376 7.08984 102.308 7.33524 103.143 7.82699C103.976 8.31824 104.636 8.99924 105.122 9.87039C105.608 10.7415 105.851 11.7503 105.851 12.8968C105.851 14.0437 105.608 15.0521 105.122 15.9232C104.636 16.7944 103.973 17.4754 103.131 17.9666C102.29 18.4584 101.354 18.7038 100.325 18.7038ZM100.325 16.2248C101.05 16.2248 101.681 15.9458 102.218 15.3873C102.754 14.8288 103.023 13.9991 103.023 12.8973C103.023 11.7954 102.754 10.9653 102.218 10.4072C101.681 9.84874 101.057 9.56974 100.347 9.56974C99.6073 9.56974 98.9718 9.84874 98.4428 10.4072C97.9133 10.9657 97.6488 11.7954 97.6488 12.8973C97.6488 13.9991 97.9133 14.8292 98.4428 15.3873C98.9723 15.9458 99.5993 16.2248 100.325 16.2248Z" fill="black" style="fill:black;fill-opacity:1;"/>
<path d="M107.278 18.7049V7.62732H109.758L110.019 9.70438C110.411 8.98978 110.944 8.42022 111.618 7.99612C112.293 7.57162 113.087 7.35938 114 7.35938V10.3743H113.217C112.608 10.3743 112.064 10.4714 111.586 10.6644C111.107 10.8582 110.733 11.1929 110.465 11.6695C110.197 12.1465 110.063 12.8086 110.063 13.6572V18.7045L107.278 18.7049Z" fill="black" style="fill:black;fill-opacity:1;"/>
</g>
<defs>
<clipPath id="clip0_5728_785">
<rect width="114" height="22" fill="white" style="fill:white;fill-opacity:1;"/>
</clipPath>
</defs>
</svg>
