<svg width="87" height="23" viewBox="0 0 87 23" fill="none" xmlns="http://www.w3.org/2000/svg">
<g clip-path="url(#clip0_5995_5191)">
<path d="M2.49082 8.00843L14.7261 0.909844C17.3104 -0.586981 20.5808 1.25004 20.5808 4.24369V18.5089C20.5808 21.5026 17.3104 23.3395 14.7033 21.8201L2.46795 14.6535C-0.0705897 13.1566 -0.0705895 9.4826 2.49082 8.00843Z" fill="#D21A4D" style="fill:#D21A4D;fill:color(display-p3 0.8235 0.1020 0.3020);fill-opacity:1;"/>
<path d="M23.0509 8.8016C23.0509 7.59962 23.028 6.62438 22.9595 5.64919H24.8576L24.972 7.57689H25.0177C25.5895 6.46562 26.9616 5.39972 28.9056 5.39972C30.5293 5.39972 33.045 6.35226 33.045 10.3438V17.2836H30.9181V10.5933C30.9181 8.71089 30.2092 7.14602 28.1966 7.14602C26.8016 7.14602 25.7038 8.1212 25.3379 9.30052C25.2464 9.5727 25.2007 9.93553 25.2007 10.2758V17.2836H23.0509V8.8016Z" fill="#211F23" style="fill:#211F23;fill:color(display-p3 0.1294 0.1216 0.1373);fill-opacity:1;"/>
<path d="M46.6065 5.64919C46.5608 6.48835 46.515 7.41814 46.515 8.84698V15.6054C46.515 18.2815 45.989 19.9144 44.8455 20.9123C43.702 21.9782 42.0554 22.3184 40.5688 22.3184C39.1738 22.3184 37.6187 21.9782 36.6581 21.3659L37.1841 19.7556C37.9617 20.2319 39.1738 20.6628 40.6375 20.6628C42.8101 20.6628 44.411 19.5289 44.411 16.6032V15.3105H44.3652C43.702 16.3991 42.4442 17.2609 40.6375 17.2609C37.733 17.2609 35.6519 14.8116 35.6519 11.5912C35.6519 7.64494 38.2362 5.39972 40.9348 5.39972C42.9702 5.39972 44.0908 6.46562 44.5939 7.41814H44.6397L44.7312 5.67187H46.6065V5.64919ZM44.411 10.2531C44.411 9.8902 44.3881 9.5727 44.2966 9.30051C43.9078 8.07588 42.8558 7.05531 41.3236 7.05531C39.2882 7.05531 37.8245 8.75621 37.8245 11.4551C37.8245 13.7457 38.9908 15.6507 41.3007 15.6507C42.6043 15.6507 43.7935 14.8343 44.2509 13.4962C44.3652 13.1333 44.411 12.7251 44.411 12.3622V10.2531Z" fill="#211F23" style="fill:#211F23;fill:color(display-p3 0.1294 0.1216 0.1373);fill-opacity:1;"/>
<path d="M56.5558 17.3072L56.3957 15.833H56.3271C55.6639 16.7402 54.4061 17.5566 52.7366 17.5566C50.3581 17.5566 49.146 15.9011 49.146 14.2228C49.146 11.4106 51.6617 9.86844 56.2128 9.8911V9.64164C56.2128 8.68912 55.9383 6.94278 53.537 6.94278C52.4393 6.94278 51.2958 7.28301 50.4725 7.80459L49.9922 6.39847C50.9527 5.76348 52.3706 5.35526 53.8572 5.35526C57.4477 5.35526 58.3168 7.78193 58.3168 10.1179V14.4723C58.3168 15.4928 58.3625 16.4681 58.4997 17.2618H56.5558V17.3072ZM56.2356 11.3653C53.9029 11.3199 51.2729 11.7281 51.2729 13.996C51.2729 15.3567 52.1877 16.0145 53.2855 16.0145C54.8177 16.0145 55.7782 15.062 56.1213 14.0641C56.1899 13.8373 56.2356 13.6105 56.2356 13.3837V11.3653Z" fill="#211F23" style="fill:#211F23;fill:color(display-p3 0.1294 0.1216 0.1373);fill-opacity:1;"/>
<path d="M71.8553 5.64919C71.81 6.48835 71.7641 7.41814 71.7641 8.84698V15.6054C71.7641 18.2815 71.2381 19.9144 70.0943 20.9123C68.9511 21.9782 67.3042 22.3184 65.8176 22.3184C64.4228 22.3184 62.8676 21.9782 61.9071 21.3659L62.4331 19.7556C63.2107 20.2319 64.4228 20.6628 65.8866 20.6628C68.0593 20.6628 69.6602 19.5289 69.6602 16.6032V15.3105H69.6143C68.9511 16.3991 67.693 17.2609 65.8866 17.2609C62.982 17.2609 60.9009 14.8116 60.9009 11.5912C60.9009 7.64494 63.4851 5.39972 66.184 5.39972C68.2189 5.39972 69.3398 6.46562 69.8428 7.41814H69.8887L69.98 5.67187H71.8553V5.64919ZM69.6602 10.2531C69.6602 9.8902 69.6372 9.5727 69.5453 9.30051C69.1566 8.07588 68.1047 7.05531 66.5727 7.05531C64.5372 7.05531 63.0735 8.75621 63.0735 11.4551C63.0735 13.7457 64.2399 15.6507 66.5498 15.6507C67.8532 15.6507 69.0423 14.8343 69.5 13.4962C69.6143 13.1333 69.6602 12.7251 69.6602 12.3622V10.2531Z" fill="#211F23" style="fill:#211F23;fill:color(display-p3 0.1294 0.1216 0.1373);fill-opacity:1;"/>
<path d="M80.2484 5.39972C78.1216 5.39972 76.2463 6.48835 75.1714 8.14392C75.1714 8.14392 74.7137 8.86964 74.4622 9.68607C74.3933 9.93553 74.325 10.185 74.302 10.4345C74.256 10.8654 74.2107 11.4324 74.279 12.0674C74.302 12.2942 74.3479 12.521 74.3933 12.7251H74.3709C74.4622 13.224 74.6454 13.7457 74.9422 14.2673H74.9652C75.0565 14.4487 75.1714 14.6301 75.3086 14.8116C75.3086 14.8343 75.3309 14.8343 75.3309 14.8569C76.2463 16.127 77.8012 17.1022 80.1795 17.2156C80.2484 17.2156 80.3167 17.2156 80.408 17.2156C81.5519 17.2156 82.787 16.8074 84.0904 16.0362C84.4562 15.8094 84.5704 15.3332 84.3419 14.9704C84.1134 14.6075 83.6327 14.4941 83.267 14.7208C82.1238 15.4012 81.1172 15.7187 80.2255 15.6961C76.7493 15.5373 75.9718 13.2694 75.8116 11.9767H85.4851C85.6913 11.9767 85.8968 11.8859 86.034 11.7499C86.1713 11.5912 86.2632 11.387 86.2632 11.1829C86.1713 7.93979 83.5185 5.39972 80.2484 5.39972ZM75.8799 10.4345C76.3146 8.4387 78.0986 6.94188 80.2484 6.94188C82.3983 6.94188 84.2047 8.41604 84.6164 10.4345H75.8799Z" fill="#211F23" style="fill:#211F23;fill:color(display-p3 0.1294 0.1216 0.1373);fill-opacity:1;"/>
<path d="M12.5772 5.39972C10.4503 5.39972 8.57499 6.48835 7.50015 8.14392C7.50015 8.14392 7.04274 8.82426 6.79118 9.68607C6.74544 9.7995 6.72257 9.93553 6.6997 10.049V10.0716C6.67683 10.185 6.65396 10.3211 6.63109 10.4345C6.63109 10.4345 6.44813 11.5004 6.65396 12.4756C6.65396 12.4983 6.65396 12.4983 6.65396 12.521C6.67683 12.589 6.67683 12.6571 6.6997 12.7251C6.6997 12.7251 6.81405 13.3828 7.38577 14.4714C8.25482 15.9229 9.85575 17.0795 12.4858 17.2156C12.5544 17.2156 12.623 17.2156 12.7145 17.2156C13.8351 17.2156 15.07 16.83 16.3736 16.0362C16.6938 15.8548 16.8539 15.4466 16.7395 15.1064C16.5566 14.6301 16.0077 14.4487 15.596 14.6982C14.4526 15.3786 13.4463 15.6734 12.5544 15.6734C9.8786 15.6734 8.73508 13.7457 8.41491 13.0653C8.30059 12.7931 8.23197 12.4983 8.20912 12.3622C8.20912 12.3395 8.20912 12.3169 8.18627 12.2942C8.16335 12.1127 8.1405 11.9767 8.1405 11.9767C8.09473 11.5458 8.07188 11.0241 8.18627 10.4798C8.27773 10.049 8.43782 9.61802 8.50644 9.48199C8.52929 9.43661 8.55214 9.41395 8.55214 9.36856C9.28396 7.91712 10.7934 6.91922 12.5544 6.91922C14.7041 6.91922 16.5109 8.39338 16.9225 10.4118H12.1656C11.731 10.4118 11.388 10.752 11.388 11.1829C11.388 11.6138 11.731 11.954 12.1656 11.954H17.8144C18.0203 11.954 18.226 11.8633 18.3633 11.7272C18.5005 11.5684 18.592 11.3644 18.592 11.1602C18.5005 7.93978 15.8476 5.39972 12.5772 5.39972Z" fill="white" style="fill:white;fill-opacity:1;"/>
</g>
<defs>
<clipPath id="clip0_5995_5191">
<rect width="86.8095" height="22.7875" fill="white" style="fill:white;fill-opacity:1;"/>
</clipPath>
</defs>
</svg>
