<svg width="24" height="24" viewBox="0 0 24 24" fill="none" xmlns="http://www.w3.org/2000/svg">
<path d="M10.0531 10.2248L11.8282 6.95691L13.6034 10.2248L16.8713 12L13.6034 13.7752L11.8282 17.0431L10.0531 13.7752L6.78516 12L10.0531 10.2248Z" stroke="#211F23" style="stroke:#211F23;stroke:color(display-p3 0.1294 0.1216 0.1373);stroke-opacity:1;" stroke-width="1.5" stroke-linecap="round" stroke-linejoin="round"/>
<path d="M21.5895 11.9998C21.5895 14.0123 20.9675 15.9755 19.8087 17.6208C18.6498 19.2661 17.0108 20.5131 15.116 21.1909C13.2211 21.8688 11.1631 21.9444 9.2236 21.4075C7.2841 20.8706 5.55795 19.7474 4.28145 18.1916C3.00496 16.6358 2.2405 14.7235 2.09275 12.7165C1.945 10.7095 2.42117 8.70587 3.45607 6.97993C4.49097 5.25398 6.03402 3.89007 7.87398 3.07492C9.71394 2.25977 11.7609 2.03322 13.7345 2.42629" stroke="#211F23" style="stroke:#211F23;stroke:color(display-p3 0.1294 0.1216 0.1373);stroke-opacity:1;" stroke-width="1.5" stroke-linecap="round" stroke-linejoin="round"/>
<path d="M16.7881 7.8988L21.6418 3.0813" stroke="#211F23" style="stroke:#211F23;stroke:color(display-p3 0.1294 0.1216 0.1373);stroke-opacity:1;" stroke-width="1.5" stroke-linecap="round" stroke-linejoin="round"/>
<path d="M17.874 3.00879H21.7866V6.95691" stroke="#211F23" style="stroke:#211F23;stroke:color(display-p3 0.1294 0.1216 0.1373);stroke-opacity:1;" stroke-width="1.5" stroke-linecap="round" stroke-linejoin="round"/>
</svg>
